<svg xmlns="http://www.w3.org/2000/svg" width="865.76" height="682.89" viewBox="0 0 865.76 682.89"><path d="M250.05,569.15S29,588.17,32.1,413.24c0,0-12.25-137.08,88.39-218.81a203.15,203.15,0,0,1,86-40.58c25.16-5.36,68.14-17.09,112.43-40.88,0,0,191.39-137.73,397.21-10.83,0,0,154.75,100.56,109.87,269.25,0,0-28.69,178.62-303.73,169C522.24,540.4,342.65,564.16,250.05,569.15Z" fill="#0071f2"/><path d="M250.05,569.15S29,588.17,32.1,413.24c0,0-12.25-137.08,88.39-218.81a203.15,203.15,0,0,1,86-40.58c25.16-5.36,68.14-17.09,112.43-40.88,0,0,191.39-137.73,397.21-10.83,0,0,154.75,100.56,109.87,269.25,0,0-28.69,178.62-303.73,169C522.24,540.4,342.65,564.16,250.05,569.15Z" fill="#fff" opacity="0.7" style="isolation:isolate"/><path d="M433.44,133h218a7,7,0,0,1,7,7v59.14A18.86,18.86,0,0,1,639.58,218H445.3a18.86,18.86,0,0,1-18.86-18.86V140A7,7,0,0,1,433.44,133Z" fill="#0071f2"/><path d="M433.44,133h218a7,7,0,0,1,7,7v59.14A18.86,18.86,0,0,1,639.58,218H445.3a18.86,18.86,0,0,1-18.86-18.86V140A7,7,0,0,1,433.44,133Z" opacity="0.2"/><rect x="196.44" y="125" width="105" height="104" rx="17.43" fill="#0071f2"/><rect x="203.51" y="132" width="90.87" height="90" rx="12.28" fill="#fff"/><circle cx="249.94" cy="177.5" r="3.5" fill="#2f2e41"/><path d="M275.19,177.5H248.94a.5.5,0,0,1-.5-.5V145.69a.5.5,0,0,1,1,0V176.5h25.75a.5.5,0,0,1,.5.5A.5.5,0,0,1,275.19,177.5Z" fill="#2f2e41"/><path d="M440.44,133h218a7,7,0,0,1,7,7v59.14A18.86,18.86,0,0,1,646.58,218H452.3a18.86,18.86,0,0,1-18.86-18.86V140A7,7,0,0,1,440.44,133Z" fill="#0071f2"/><rect x="454.44" y="144" width="36" height="8" rx="4" fill="#fff"/><rect x="454.44" y="157" width="36" height="8" rx="4" fill="#fff"/><circle cx="640.94" cy="157.5" r="6.5" fill="#fff"/><path d="M479.44,190h140a16,16,0,0,1,16,16v0a0,0,0,0,1,0,0h-172a0,0,0,0,1,0,0v0A16,16,0,0,1,479.44,190Z" fill="#fff"/><path d="M613.44,198.5H478.94a.5.5,0,0,1-.5-.5.5.5,0,0,1,.5-.5h134.5a.5.5,0,0,1,.5.5A.5.5,0,0,1,613.44,198.5Z" fill="#0071f2"/><path d="M494.44,229c4.79,2.76,4.46,9.5,3.66,14.25-.65,3.36-2.32,6.26-2.83,9.61a19.55,19.55,0,0,0,.41,9.58,20.72,20.72,0,0,0,2.14,4.49,15.22,15.22,0,0,1-3.05-4.12c-2.32-4.77-1.88-10.47-.06-15.32,2.06-5.19,4.31-14.14-.27-18.49Z" fill="#e6e6e6"/><path d="M529.44,229c4.79,2.76,4.46,9.5,3.66,14.25-.65,3.36-2.32,6.26-2.83,9.61a19.55,19.55,0,0,0,.41,9.58,20.72,20.72,0,0,0,2.14,4.49,15.22,15.22,0,0,1-3.05-4.12c-2.32-4.77-1.88-10.47-.06-15.32,2.06-5.19,4.31-14.14-.27-18.49Z" fill="#e6e6e6"/><path d="M565.44,229c4.79,2.76,4.46,9.5,3.66,14.25-.65,3.36-2.32,6.26-2.83,9.61a19.55,19.55,0,0,0,.41,9.58,20.72,20.72,0,0,0,2.14,4.49,15.22,15.22,0,0,1-3.05-4.12c-2.32-4.77-1.88-10.47-.06-15.32,2.06-5.19,4.31-14.14-.27-18.49Z" fill="#e6e6e6"/><path d="M601.44,229c4.79,2.76,4.46,9.5,3.66,14.25-.65,3.36-2.32,6.26-2.83,9.61a19.55,19.55,0,0,0,.41,9.58,20.72,20.72,0,0,0,2.14,4.49,15.22,15.22,0,0,1-3.05-4.12c-2.32-4.77-1.88-10.47-.06-15.32,2.06-5.19,4.31-14.14-.27-18.49Z" fill="#e6e6e6"/><rect x="682.44" y="459" width="13" height="13" fill="#2f2e41"/><rect x="528.44" y="459" width="13" height="13" fill="#2f2e41"/><g opacity="0.2"><rect x="682.44" y="459" width="13" height="13"/><rect x="528.44" y="459" width="13" height="13"/></g><rect x="474.44" y="472" width="355" height="68" fill="#2f2e41"/><rect x="483.44" y="481" width="338" height="50" opacity="0.2"/><rect x="595.94" y="473.5" width="1" height="63" fill="#2f2e41"/><rect x="707.94" y="473.5" width="1" height="63" fill="#2f2e41"/><rect x="604.44" y="488" width="97" height="34" fill="#fff"/><polygon points="701.44 488 701.44 496 610.44 496 610.44 522 604.44 522 604.44 488 701.44 488" fill="#0071f2"/><circle cx="538.94" cy="505.5" r="4.5" fill="#fff"/><circle cx="764.94" cy="506" r="4.5" fill="#fff"/><polygon points="523.82 540 509.44 585 523.82 585 545.79 540 523.82 540" fill="#2f2e41"/><polygon points="780.41 540 794.79 585 780.41 585 758.44 540 780.41 540" fill="#2f2e41"/><g opacity="0.2"><polygon points="523.82 540 509.44 585 523.82 585 545.79 540 523.82 540"/><polygon points="780.41 540 794.79 585 780.41 585 758.44 540 780.41 540"/></g><ellipse cx="95.44" cy="265.5" rx="34" ry="6.5" fill="#2f2e41"/><rect x="87.44" y="329" width="14" height="275" fill="#2f2e41"/><path d="M69.12,598H120a4.07,4.07,0,0,1,4.07,4.07V612a0,0,0,0,1,0,0H65a0,0,0,0,1,0,0v-9.93A4.07,4.07,0,0,1,69.12,598Z" fill="#0071f2"/><line x1="56.65" y1="612" x2="132.44" y2="612" fill="none" stroke="#0071f2" stroke-miterlimit="10"/><rect x="131.26" y="320.5" width="1" height="65.14" fill="#2f2e41"/><ellipse cx="131.76" cy="391" rx="4" ry="6" fill="#0071f2"/><path d="M175.44,582.49,189.85,587l104.55.45,19.43-5.35,5.79-226.49c0-9.7-4.19-17.49-9.26-17.2l-137.57,4.11Z" fill="#a7a9ac"/><path d="M302.43,436.74l3.45,35.11,61.59,69.42,20.08,22.65,36.64,4.14L439.8,500.2l7.62-33.07L459.24,457c-3.38-18.15-19.86-17.74-19.86-17.74-3.91-1.41-21.25-4-41.54-6.64l-9.55,19.11s-12.46,7.7-23.64-9.72c0,0,1.57-6.29,3.41-13.15-25.26-3.09-47.45-5.59-47.45-5.59C306.19,421.69,302.43,436.74,302.43,436.74Z" fill="#d1d3d4"/><path d="M387.55,563.92l-.89-71.85a5.22,5.22,0,0,0-2.29-4.28,16.26,16.26,0,0,0-9.14-2.74l-74,15.06v85.37Z" fill="#a7a9ac"/><path d="M234.47,353.36s-18.68,6.81-23.31,23.64-3.79,55.55,5.68,70.91c0,0,45.88,7.16,61.66,14.1a54.28,54.28,0,0,1,19-6.28,19.32,19.32,0,0,0,11.14-5.07,11.43,11.43,0,0,0,3.9-7.41,2,2,0,0,0-2.23-2.05h0a7.38,7.38,0,0,1-6.51-2.65c-3.16-3.84-8.09-11.48-10.54-23.88l-2.74-71.13s-9-10.88-22.71-3.94c0,0-6.23,5.22-8.71,6.33l-10.66,6.24Z" fill="#0071f2"/><path d="M223.62,327.8a32.29,32.29,0,0,0,11.07,13.31c5.81,3.89,12.45,5,18.09,2.41a14.88,14.88,0,0,0,3.2-2c7.34-6,9.1-18.66,3.66-30.4-6.16-13.29-19.22-20.33-29.16-15.72S217.46,314.5,223.62,327.8Z" fill="#f9b499"/><path d="M234.47,353.36c1,8.71,16.6,13.77,16.6,13.77,18,5.07,20.46-1,20.46-1,1.11-4.61-5.62-13.81-8.58-17.57a6.46,6.46,0,0,0-2.74-2c-2.62-1.06-4-4.44-4.23-5.06a14.88,14.88,0,0,1-3.2,2c-5.64,2.61-12.28,1.48-18.09-2.41,1.44,3,3.43,7,3.43,7C241,353.56,234.47,353.36,234.47,353.36Z" fill="#f9b499"/><path d="M256,341.51a10.49,10.49,0,0,0,2.35,3.68s-11.93,6.33-21.12-2.64C237.21,342.55,247.93,348.5,256,341.51Z" fill="#f7a48b"/><path d="M259.07,345.93s15.62-7.39,12.56-18.37c0,0-1.94-10.51-9.52-17.95a3.15,3.15,0,0,1-.92-2.68c.56-4,.8-14.71-11.26-19.51,0,0-14.13-7.32-20.61.51,0,0-24.52,1.2-25.2,25.89,0,0-3.1,48.94,19.38,45.88a38.93,38.93,0,0,1,6-3.95,42,42,0,0,1,5-2.39,3.66,3.66,0,0,0,4.18-1.89,3.19,3.19,0,0,0-.3-2.73l-3.66-7.63s-9.31-6.06-12.79-19.65c0,0,2.33-1.15,4.93,1.87,0,0,1.9-.49,1.06-6.89,0,0,8.8,6.68,13-10.21,0,0,1.69,4.22,1,6.9,0,0,13.28-2.63,10.18-12.49,0,0,12.93,11,10.26,29.31,0,0-1,7.34-6.36,11.56A10.77,10.77,0,0,0,259.07,345.93Z" fill="#2f2e41"/><path d="M227.89,316.44s-3-6.27-3.45-10.49c0,0,1.09,8.5-2.92,14.33a13.54,13.54,0,0,0-2.36,5.5c-.55,3.3-.49,8.51,2.37,15.5a12.47,12.47,0,0,0,.55,1.17c1.32,2.47,6.48,11.66,10.38,11.78l2-.87s6.34.42,3.65-5.26l-3.43-7s-4.62-2.64-9.9-11.09a40.06,40.06,0,0,1-3.31-8.37s2.54-1.69,5.35,1.68C226.83,323.33,228.59,323.26,227.89,316.44Z" opacity="0.2"/><path d="M258.93,309.56s3.94-8.88-16.36-20.42c0,0,10,6,12.18,14.21A51.28,51.28,0,0,1,258.93,309.56Z" opacity="0.2"/><path d="M240.91,306.23s-1.77-5.68-9.63-6.31" fill="none" stroke="#000" stroke-miterlimit="10" opacity="0.2"/><path d="M259.07,345.93A37.15,37.15,0,0,0,265,342s.26-7.11-2.53-12.82A17.54,17.54,0,0,1,256,341.51,11.11,11.11,0,0,0,259.07,345.93Z" opacity="0.2"/><path d="M298.32,429.9s-32.66,3.71-65.27-28.91c0,0,30.3,13.47,32.82,6.31,4,1.47,8.46,2.91,13.26,4.21,5,1.36,9.72,2.38,14.1,3.16A51.6,51.6,0,0,0,298.32,429.9Z" opacity="0.2"/><path d="M297.06,337.1c2.4,9.29,11,43.59,11.33,60.58,14.26,10.49,21.43,9.51,24.91,6.95a8.39,8.39,0,0,0,3.05-4.22c3.86-8.48-19.43-49.1-25.43-59.33a8.8,8.8,0,0,1-1.18-5.09L311,319.32c2.33-16.26-8.24-16.68-8.24-16.68l0,1.77v.64l0,1,.05,0a6.77,6.77,0,0,1,4.19,6.44c-.09,4.09-1.38,12.06-8.89,20.53A4.5,4.5,0,0,0,297.06,337.1Z" fill="#f9b499"/><path d="M286.71,351.41s-2.91,16.4-7.12,23.12a5.05,5.05,0,0,1-5.47,2.22l-26.4-6.3,19.37,10.74s8.94,3.41,14.15,3.59C281.24,384.78,284.89,373,286.71,351.41Z" opacity="0.2"/><path d="M312.51,443.25l30-27.05,12.12-12.42c.69-.71,1.35-1.44,2-2.2,2.26-2.75,9-10.28,11.92-5.73,0,0-6.17,12.18,4.51,16.52,0,0-9.18,27.52-10,40.53,0,0-2.84,22.52-9.51,25.36,0,0-7.67-15.51-15.85-16.18,0,0-17.18-2.84-20.52,25.19,0,0-.16,8.84.84,12.84,0,0-9.68,1.67-16.68,0,0,0,1.15-33.33-22.78-38.1,0,0,9-5.29,19-6.28C297.47,455.73,310.48,454.35,312.51,443.25Z" fill="#2f2e41"/><path d="M368.5,395.85A2.1,2.1,0,0,0,367,394.7s-8.24,13.41,5.38,20l.66-2.29S362.54,409.14,368.5,395.85Z" opacity="0.2"/><path d="M364.65,442c11.18,17.42,23.64,9.72,23.64,9.72l9.55-19.11,3.54-7.08c4.86-8.9,6.45-16,6.57-21.46a18.38,18.38,0,0,0-15.69-18.8c-13.21-1.74-23.76,10.59-23.76,10.59-5.85,13.18,4.5,16.51,4.5,16.51-1.08,2.52-3.13,9.77-4.94,16.48S364.65,442,364.65,442Z" fill="#f9b499"/><path d="M383,403.36s-6.81,4-10,9c0,0-10.36-3.12-4.51-16.52,0,0-.8,12.47,3.95,12.89C372.45,408.74,377.63,403.15,383,403.36Z" fill="#f7a48b"/><path d="M388.29,451.71S373,455,365.67,437.61l-1,4.39S374,458.9,388.29,451.71Z" fill="#f7a48b"/><path d="M155.82,576l34,11,1.91-225.35a19,19,0,0,0-19-19.13h0a19,19,0,0,0-19,19.15Z" fill="#bcbec0"/><path d="M301.66,602.2l-.54-103.42s1.69-31.24-22.62-36.77c0,0-34.87-12.3-61.66-14.1,0,0-21.06-6.16-22.69,14.3,0,0-2.79,27.16-1.8,51.23l2.89,75.94,64.67,25.37Z" fill="#d1d3d4"/><path d="M353.64,404.73a25.85,25.85,0,0,0,1.91,7.68,28,28,0,0,0,1.76,3.56,19.42,19.42,0,0,0,2.36,3.2c-.57-1.2-1.14-2.37-1.67-3.56s-1.06-2.37-1.54-3.58C355.47,409.63,354.59,407.2,353.64,404.73Z" opacity="0.2"/><path d="M314.85,441.14s6.27,14.81,21.46,13.18c0,0,11.68-.38,18.84-9,0,0,11.55-15.32,13.43-33a29.29,29.29,0,0,0,3.77,2.4s-3.23,8.74-7.7,27.34c0,0-3.65,34.34-11.16,36.26,0,0-7.49-15.83-15.85-16.18,0,0,2.44-2-9.24-3.87l-23-5.14s5.95-3.15,7.08-9.82Z" opacity="0.2"/><path d="M371.22,417.41a95.34,95.34,0,0,0-8,23.1s-3.76,24.23-33.39,16.32l-23.11-4.64-1.25.88,23,5.14s10.82,1.33,9.24,3.87c0,0,7.67-.18,15.85,16.18,0,0,4.66-.23,8.31-18.24,0,0,2.51-19.51,5.78-29Z" opacity="0.2"/><path d="M322.72,457a14.68,14.68,0,0,0-4.47,2,23,23,0,0,0-3.8,3.15,25.21,25.21,0,0,0-3.05,3.87c-.47.68-.83,1.42-1.23,2.13s-.69,1.49-1,2.24c.94-1.33,1.86-2.66,2.85-3.92a47.12,47.12,0,0,1,3.12-3.64,36,36,0,0,1,3.55-3.2A25.45,25.45,0,0,1,322.72,457Z" opacity="0.2"/><path d="M307.69,475.31a13.91,13.91,0,0,0-1.48,4.15,26.9,26.9,0,0,0-.55,4.38,34,34,0,0,0,.09,4.4c.07.73.17,1.46.26,2.18s.26,1.45.43,2.16c.05-1.47.07-2.92.08-4.37s0-2.89.13-4.32.16-2.88.31-4.31A31.5,31.5,0,0,1,307.69,475.31Z" opacity="0.2"/><path d="M337.64,462.08s-13.93-3.92-23,16.58c0,0-4.22,9.7-17.89-1.49a48.1,48.1,0,0,1,4.53,22.94,51.79,51.79,0,0,0,16.68,0s-3.81-21.82,5.75-31.88C323.71,468.23,329.7,461.27,337.64,462.08Z" opacity="0.2"/><path d="M297.06,337.1c2.4,9.29,11,43.59,11.33,60.58,14.26,10.49,21.43,9.51,24.91,6.95-15.33.86-23.14-24.35-23.14-24.35-6.89-16.33-10.55-45.75-10.55-45.75l5.85-9.38a22.24,22.24,0,0,0,3-7.62c2.08-11.09-5.26-13-5.74-13.12h0l0,.65,0,1a6.77,6.77,0,0,1,4.19,6.44c-.09,4.09-1.38,12.06-8.89,20.53A4.5,4.5,0,0,0,297.06,337.1Z" fill="#f7a48b"/><polygon points="287.58 315.98 302.57 315.98 302.57 289.15 287.58 295.72 287.58 315.98" fill="#2f2e41"/><polygon points="302.57 289.15 298.43 288.15 284.3 294.15 284.87 316.41 287.58 315.98 287.58 295.72 302.57 289.15" fill="#2f2e41"/><polygon points="302.57 289.15 298.43 288.15 284.3 294.15 284.87 316.41 287.58 315.98 287.58 295.72 302.57 289.15" opacity="0.2"/><path d="M256.32,401.25c2.54,6.75,9.55,6.06,9.55,6.06,16.52,5.84,27.36,7.36,27.36,7.36,18.31,6.45,15-12.58,15-12.58a35.84,35.84,0,0,0,.13-4.41c-.36-17-8.93-51.29-11.33-60.58a4.5,4.5,0,0,1,1-4.1c7.51-8.47,8.8-16.43,8.89-20.52a6.75,6.75,0,0,0-4.19-6.45l-.05,0a21.26,21.26,0,0,0-8.93-.92,5.23,5.23,0,0,0-3.75,2.07l-5.2,6.88-.26-8.4c.21-3.34-1.7-3.39-2.72-3.18a.69.69,0,0,0-.54.75,11.14,11.14,0,0,1-1.76,6.61,8.58,8.58,0,0,0-.85,9.08l7.39,15.57a5.2,5.2,0,0,1,.5,1.9C287.73,355.79,283.65,375,282,382a3.18,3.18,0,0,1-3.63,2.38,78.12,78.12,0,0,1-11.23-3.2C253.58,384.15,256.32,401.25,256.32,401.25Z" fill="#f9b499"/><path d="M305.4,320.09a1.23,1.23,0,0,0-.91-.57,3.33,3.33,0,0,0-1.09,0,6.74,6.74,0,0,0-2,.63,9.63,9.63,0,0,0-3.24,2.52,16.78,16.78,0,0,0,1.88-.77c.61-.29,1.19-.59,1.78-.86a18.07,18.07,0,0,1,1.76-.77,4.82,4.82,0,0,1,.9-.25A1.31,1.31,0,0,1,305.4,320.09Z" fill="#f7a48b"/><path d="M306.82,315a4.54,4.54,0,0,0-2.71-.55,9.36,9.36,0,0,0-2.72.62c-.43.16-.84.38-1.26.57s-.8.46-1.18.71a12.16,12.16,0,0,0-2.08,1.78c.86-.34,1.66-.73,2.46-1.11s1.6-.73,2.42-1a16.47,16.47,0,0,1,2.47-.78A7.52,7.52,0,0,1,306.82,315Z" fill="#f7a48b"/><path d="M306.11,309.14a8.88,8.88,0,0,0-3.18-.81,12.62,12.62,0,0,0-3.3.16,13.21,13.21,0,0,0-3.14,1,11.19,11.19,0,0,0-2.75,1.78c1-.36,2-.76,3-1.06a25.59,25.59,0,0,1,3.05-.75,21.46,21.46,0,0,1,3.11-.36A24.32,24.32,0,0,1,306.11,309.14Z" fill="#f7a48b"/><ellipse cx="224.7" cy="327.51" rx="4.05" ry="6.67" transform="matrix(0.91, -0.42, 0.42, 0.91, -116.67, 124.49)" fill="#f9b499"/><path d="M259.91,614.75l41.75-12.55-.38-102.08c-.12-21.05-9.17-30.26-9.17-30.26l-11.19-.43a17.74,17.74,0,0,0-18.38,17.34Z" fill="#bcbec0"/><path d="M192.35,513.44l2.89,75.94,64.67,25.37,2.63-128a17.74,17.74,0,0,1,18.38-17.34s-5.3-4.35-15.63,3.45a37.12,37.12,0,0,0-11.38,14.35c-4.27,9.42-14.84,27.92-31.92,27.92Z" opacity="0.2"/><path d="M424.19,568.05l35.75-13.79-.23-93.17a19.08,19.08,0,0,0-19.22-19h0a19.06,19.06,0,0,0-18.92,19.54Z" fill="#bcbec0"/><path d="M301.51,506l-.23-5.87,74-15.06s10.64.29,11.43,7l.89,71.85-86.26,21.56.43-5.39s50.68-6.76,48.56-13.51C350.28,566.58,324.1,509.78,301.51,506Z" opacity="0.1"/><path d="M318,500.11s-4.86-25.7,9.39-35.1c0,0,10.65-9.14,20.75,4.56a64.86,64.86,0,0,1,5.39,8.69L371.75,541s-3.18,10.65-22.82,8.44C348.93,549.4,327.52,519,318,500.11Z" fill="#f9b499"/><path d="M371.76,541l-.7-2.53s-13.8,13.17-21.5,2.73c0,0-23.24-31.56-26-57.77,0,0-2.09-18.14,14.05-21.31,0,0-16.91-1.81-20.26,21.8a67,67,0,0,0,.58,16.23s17.54,31.67,31,49.28C348.93,549.39,366.5,552.68,371.76,541Z" fill="#f7a48b"/><path d="M365.05,581.07c-.91,14.18,7.83,15.58,10.67,15.65a7.68,7.68,0,0,0,.88,0c10.51,1.67,25.59,8.31,25.59,8.31-1.38-8.72,9.41-16.61,9.41-16.61L391,579.56a28.67,28.67,0,0,1-10.56-10.8,12.05,12.05,0,0,1-.95-2.25L371.76,541c-4.9,11.22-22.83,8.43-22.83,8.43,8.18,8.94,13.51,21.8,15.48,27.08a11.3,11.3,0,0,1,.64,4.58Z" fill="#0071f2"/><path d="M375.72,596.72a9.92,9.92,0,0,0,1.53-5.31A10.66,10.66,0,0,0,366.35,581c-.44,0-.88,0-1.3.07C364.14,595.25,372.88,596.65,375.72,596.72Z" fill="#e6e7e8"/><path d="M359.44,499.59l22,15.08a17.43,17.43,0,0,1,1.54-5.62,13,13,0,0,1,8.28-7.11c-6.5-5.12-13.56-17.29-13.56-17.29-3.6-4.7-1.1-11.21-1.1-11.21l11.69-21.72a14.85,14.85,0,0,1-15.15-.74,27.29,27.29,0,0,1-8.49-9c-1.17,6.33-2.85,18-2.85,18-3.74,18-8.31,18.24-8.31,18.24C343.11,490,359.44,499.59,359.44,499.59Z" fill="#0071f2"/><path d="M359.44,499.59l22,15.08a17.43,17.43,0,0,1,1.54-5.62c-17.74-13.11-21.88-25.65-21.88-25.65-4-9.82,12-32.36,12-32.36V451a27.29,27.29,0,0,1-8.49-9c-1.17,6.33-2.85,18-2.85,18-3.74,18-8.31,18.24-8.31,18.24C343.11,490,359.44,499.59,359.44,499.59Z" opacity="0.2"/><path d="M391.26,501.94s15.63,7.34,10,13.84c0,0-6.37,6.91-19.78-1.11C381.44,514.67,382.27,504.56,391.26,501.94Z" fill="#e6e7e8"/><path d="M139.44,329c-32,11-78,2.4-78,2.4a26,26,0,0,1-12.7-5.1,4.85,4.85,0,0,1-1.61-5l14.29-55.73s0,0,0,0c.26,3.55,15.38,6.41,34,6.41,17.85,0,32.49-2.63,33.89-6a.14.14,0,0,1,.26,0l14.85,54C147.44,327,139.44,329,139.44,329Z" fill="#0071f2"/><rect x="493.44" y="319" width="242" height="144" rx="3.97" fill="#0071f2"/><rect x="500.44" y="325" width="229" height="124" fill="#fff"/><circle cx="614.44" cy="391" r="32" fill="#0071f2"/><circle cx="614.44" cy="401" r="4" fill="#fff"/><path d="M622.73,394.5a.56.56,0,0,1-.32-.11c-8.23-6.62-14.35-.32-14.61-.05a.5.5,0,0,1-.72-.68c.07-.08,7-7.26,16-.05a.5.5,0,0,1,.08.7A.52.52,0,0,1,622.73,394.5Z" fill="#fff"/><path d="M627.44,389.5a.49.49,0,0,1-.32-.12c-12.52-10.59-24.84-.44-25.36,0a.5.5,0,0,1-.64-.76c.13-.12,13.47-11.15,26.64,0a.5.5,0,0,1-.32.88Z" fill="#fff"/><path d="M632.44,384.5a.49.49,0,0,1-.34-.14c-17.43-16.46-33.62-.69-34.31,0a.48.48,0,0,1-.7,0,.5.5,0,0,1,0-.71c.17-.17,17.55-17.14,35.69,0a.5.5,0,0,1,0,.71A.46.46,0,0,1,632.44,384.5Z" fill="#fff"/><path d="M787.64,434.24c0-.41-1.38-40.9-7.93-47.29-6.38-6.2-13.71-.23-14,0l-.73-.88c.08-.07,8.42-6.87,15.52,0,6.91,6.72,8.25,46.39,8.3,48.08Z" fill="#2f2e41"/><path d="M788.21,442.2c0-.48-4.54-48.65,13.1-68.85l.85.75c-17.27,19.83-12.86,67.51-12.81,68Z" fill="#2f2e41"/><path d="M787.67,437.11l-1.14-.08c0-.54,3.41-54.71-9.43-66.56l.77-.83C791.14,381.81,787.81,434.85,787.67,437.11Z" fill="#2f2e41"/><path d="M789.35,437.08h-1.14c0-1.5.43-36.64,10.42-42.37a7.1,7.1,0,0,1,6.5-.63c6.06,2.51,9.08,13.26,9.18,13.71l-1.13.31c0-.12-3-10.69-8.52-13a6,6,0,0,0-5.5.58C789.73,401.09,789.35,436.71,789.35,437.08Z" fill="#2f2e41"/><path d="M785.47,437.1l-1.14-.06c0-.28,1.5-27.73-5.9-37.43-1.79-2.33-3.73-3.4-5.76-3.3-4.83.34-8.89,7.42-8.93,7.5l-1-.57c.18-.3,4.4-7.67,9.84-8.06,2.45-.16,4.71,1.13,6.74,3.74C787,409,785.52,436,785.47,437.1Z" fill="#2f2e41"/><path d="M787,440.84c-.21-2.66-4.86-65.41,3.33-76.48l.91.67c-7.94,10.74-3.17,75.07-3.11,75.72Z" fill="#2f2e41"/><path d="M807.33,400.48s-4.9,1.8-3.4,6.06,17,11.35,17,11.35,6.5-6,.53-15.63S807.47,397.41,807.33,400.48Z" fill="#0071f2"/><path d="M786,392.36s5.23-.23,5.53,4.27-11.35,16.95-11.35,16.95-8.29-3-6.51-14.23S784.73,389.59,786,392.36Z" fill="#0071f2"/><path d="M781.61,370.82s3.48-.38,3.2-2.5-13.53-7.57-21.35,1.25c0,0,5,8.6,12.24,8.71S781.61,370.82,781.61,370.82Z" fill="#0071f2"/><path d="M788.1,365.67s-3.15,1.52-4-.43,7.47-13.61,18.77-10.21c0,0,.31,10-5.77,13.87S788.1,365.67,788.1,365.67Z" fill="#0071f2"/><path d="M771.58,398.75s2.4-1.94-.19-2.88-15.31-.68-15.45,11.92c0,0,14.82,2.46,16.65-2.33S771.58,398.75,771.58,398.75Z" fill="#0071f2"/><path d="M801.82,370.47s-2.4-1.94.19-2.9,15.32-.67,15.45,11.94c0,0-14.81,2.46-16.65-2.35S801.82,370.47,801.82,370.47Z" fill="#0071f2"/><path d="M794,380.67s-.22-2.36,1.69-1.44,8.52,8.09,1.65,14.87c0,0-9.25-6.8-7.57-10.42S794,380.67,794,380.67Z" fill="#0071f2"/><path d="M769.46,384s1.44-1.88-.67-2.12-11.52,2.27-9.32,11.69c0,0,11.48-.86,12-4.76S769.46,384,769.46,384Z" fill="#0071f2"/><polygon points="808.25 472 768.86 472 764.61 428.87 812.51 428.87 808.25 472" fill="#2f2e41"/><polygon points="808.25 472 768.86 472 764.61 428.87 812.51 428.87 808.25 472" fill="#fff" opacity="0.2" style="isolation:isolate"/><rect x="762.51" y="424.1" width="52.1" height="9.52" fill="#2f2e41"/><rect x="762.51" y="424.1" width="52.1" height="9.52" opacity="0.2" style="isolation:isolate"/></svg>