 <!DOCTYPE svg PUBLIC "-//W3C//DTD SVG 1.1//EN" "http://www.w3.org/Graphics/SVG/1.1/DTD/svg11.dtd">
<svg xmlns="http://www.w3.org/2000/svg" width="865.76" height="682.89" viewBox="0 0 865.76 682.89">
  <defs>
<style xmlns="http://www.w3.org/1999/xhtml">*, ::after, ::before { box-sizing: border-box; }
img, svg { vertical-align: middle; }
</style>
<style xmlns="http://www.w3.org/1999/xhtml">*, body, html { -webkit-font-smoothing: antialiased; }
img, svg { max-width: 100%; }
</style>
</defs>
<rect x="17.44" y="568.35" width="830.88" height="0.42" fill="#ebebeb"/>
  <rect x="710.03" y="595.09" width="55.04" height="0.42" fill="#ebebeb"/>
  <rect x="553.41" y="599.61" width="14.44" height="0.42" fill="#ebebeb"/>
  <rect x="676.48" y="579.67" width="31.89" height="0.42" fill="#ebebeb"/>
  <rect x="104.62" y="582.46" width="71.77" height="0.42" fill="#ebebeb"/>
  <rect x="191.19" y="582.46" width="10.52" height="0.42" fill="#ebebeb"/>
  <rect x="235.91" y="589.48" width="155.67" height="0.42" fill="#ebebeb"/>
  <path d="M411.28,494.24H90.41a9.48,9.48,0,0,1-9.47-9.49V33.7a9.49,9.49,0,0,1,9.47-9.41H411.28a9.49,9.49,0,0,1,9.49,9.49h0v451A9.49,9.49,0,0,1,411.28,494.24ZM90.41,24.63a9.07,9.07,0,0,0-9.06,9.07V484.75a9.06,9.06,0,0,0,9.06,9.07H411.28a9.08,9.08,0,0,0,9.07-9.07V33.7a9.09,9.09,0,0,0-9.07-9.07Z" fill="#ebebeb"/>
  <path d="M770.73,494.24H449.85a9.5,9.5,0,0,1-9.49-9.49V33.7a9.51,9.51,0,0,1,9.49-9.41H770.73a9.5,9.5,0,0,1,9.46,9.41V484.75A9.49,9.49,0,0,1,770.73,494.24ZM449.85,24.63a9.09,9.09,0,0,0-9.08,9.07V484.75a9.08,9.08,0,0,0,9.08,9.07H770.73a9.08,9.08,0,0,0,9.08-9.07V33.7a9.09,9.09,0,0,0-9.08-9.07Z" fill="#ebebeb"/>
  <rect x="518.05" y="124.08" width="165.54" height="183.08" fill="#e0e0e0"/>
  <rect x="512.76" y="124.08" width="171.69" height="183.08" fill="#f0f0f0"/>
  <rect x="520.04" y="129.92" width="157.44" height="168.83" fill="#fff"/>
  <rect x="520.02" y="129.92" width="4.55" height="168.83" fill="#e0e0e0"/>
  <rect x="524.09" y="251.32" width="153.78" height="4.55" fill="#e0e0e0"/>
  <rect x="520.04" y="243.68" width="159.88" height="7.64" fill="#f0f0f0"/>
  <circle cx="334.08" cy="138.76" r="33.88" transform="translate(-25.88 102.8) rotate(-16.85)" fill="#e0e0e0"/>
  <circle cx="334.07" cy="138.77" r="28.81" transform="translate(-17.92 55.32) rotate(-9.22)" fill="#f0f0f0"/>
  <polyline points="332.73 158.55 332.73 138.41 319.37 145.97" fill="#f0f0f0"/>
  <path d="M332.73,160a1.44,1.44,0,0,1-1.45-1.44V140.88l-11.2,6.38a1.42,1.42,0,0,1-1.95-.53h0a1.44,1.44,0,0,1,.55-2L332,137.21a1.46,1.46,0,0,1,1.43,0,1.4,1.4,0,0,1,.71,1.25V158.6A1.43,1.43,0,0,1,332.73,160Z" fill="#e0e0e0"/>
  <rect x="141.71" y="554.15" width="35.89" height="14.19" fill="#f5f5f5"/>
  <rect x="122.18" y="554.15" width="16.37" height="14.19" fill="#f5f5f5"/>
  <rect x="180.72" y="554.15" width="35.89" height="14.19" fill="#f5f5f5"/>
  <rect x="219.76" y="554.15" width="35.89" height="14.19" fill="#f5f5f5"/>
  <rect x="258.79" y="554.15" width="35.89" height="14.19" fill="#f5f5f5"/>
  <rect x="297.81" y="554.15" width="35.89" height="14.19" fill="#f5f5f5"/>
  <rect x="336.85" y="554.15" width="35.89" height="14.19" fill="#f5f5f5"/>
  <rect x="375.88" y="554.15" width="35.89" height="14.19" fill="#f5f5f5"/>
  <rect x="414.9" y="554.15" width="35.89" height="14.19" fill="#f5f5f5"/>
  <rect x="453.93" y="554.15" width="35.89" height="14.19" fill="#f5f5f5"/>
  <rect x="492.97" y="554.15" width="35.89" height="14.19" fill="#f5f5f5"/>
  <rect x="531.99" y="554.15" width="35.89" height="14.19" fill="#f5f5f5"/>
  <rect x="571.02" y="554.15" width="35.89" height="14.19" fill="#f5f5f5"/>
  <rect x="610.06" y="554.15" width="35.89" height="14.19" fill="#f5f5f5"/>
  <rect x="649.07" y="554.15" width="35.89" height="14.19" fill="#f5f5f5"/>
  <rect x="688.11" y="554.15" width="35.89" height="14.19" fill="#f5f5f5"/>
  <rect x="727.14" y="554.15" width="16.37" height="14.19" fill="#f5f5f5"/>
  <rect x="122.18" y="536.37" width="35.89" height="14.19" fill="#f5f5f5"/>
  <rect x="161.22" y="536.37" width="35.89" height="14.19" fill="#f5f5f5"/>
  <rect x="200.25" y="536.37" width="35.89" height="14.19" fill="#f5f5f5"/>
  <rect x="239.27" y="536.37" width="35.89" height="14.19" fill="#f5f5f5"/>
  <rect x="278.3" y="536.37" width="35.89" height="14.19" fill="#f5f5f5"/>
  <rect x="317.34" y="536.37" width="35.89" height="14.19" fill="#f5f5f5"/>
  <rect x="356.36" y="536.37" width="35.89" height="14.19" fill="#f5f5f5"/>
  <rect x="395.39" y="536.37" width="35.89" height="14.19" fill="#f5f5f5"/>
  <rect x="434.43" y="536.37" width="35.89" height="14.19" fill="#f5f5f5"/>
  <rect x="473.44" y="536.37" width="35.89" height="14.19" fill="#f5f5f5"/>
  <rect x="512.48" y="536.37" width="35.89" height="14.19" fill="#f5f5f5"/>
  <rect x="551.51" y="536.37" width="35.89" height="14.19" fill="#f5f5f5"/>
  <rect x="590.53" y="536.37" width="35.89" height="14.19" fill="#f5f5f5"/>
  <rect x="629.57" y="536.37" width="35.89" height="14.19" fill="#f5f5f5"/>
  <rect x="668.6" y="536.37" width="35.89" height="14.19" fill="#f5f5f5"/>
  <rect x="707.62" y="536.37" width="35.89" height="14.19" fill="#f5f5f5"/>
  <rect x="141.71" y="518.59" width="35.89" height="14.19" fill="#f5f5f5"/>
  <rect x="122.18" y="518.59" width="16.37" height="14.19" fill="#f5f5f5"/>
  <rect x="180.72" y="518.59" width="35.89" height="14.19" fill="#f5f5f5"/>
  <rect x="219.76" y="518.59" width="35.89" height="14.19" fill="#f5f5f5"/>
  <rect x="258.79" y="518.59" width="35.89" height="14.19" fill="#f5f5f5"/>
  <rect x="297.81" y="518.59" width="35.89" height="14.19" fill="#f5f5f5"/>
  <rect x="336.85" y="518.59" width="35.89" height="14.19" fill="#f5f5f5"/>
  <rect x="375.88" y="518.59" width="35.89" height="14.19" fill="#f5f5f5"/>
  <rect x="414.9" y="518.59" width="35.89" height="14.19" fill="#f5f5f5"/>
  <rect x="453.93" y="518.59" width="35.89" height="14.19" fill="#f5f5f5"/>
  <rect x="492.97" y="518.59" width="35.89" height="14.19" fill="#f5f5f5"/>
  <rect x="531.99" y="518.59" width="35.89" height="14.19" fill="#f5f5f5"/>
  <rect x="571.02" y="518.59" width="35.89" height="14.19" fill="#f5f5f5"/>
  <rect x="610.06" y="518.59" width="35.89" height="14.19" fill="#f5f5f5"/>
  <rect x="649.07" y="518.59" width="35.89" height="14.19" fill="#f5f5f5"/>
  <rect x="688.11" y="518.59" width="35.89" height="14.19" fill="#f5f5f5"/>
  <rect x="727.14" y="518.59" width="16.37" height="14.19" fill="#f5f5f5"/>
  <rect x="122.18" y="500.8" width="35.89" height="14.19" fill="#f5f5f5"/>
  <rect x="161.22" y="500.8" width="35.89" height="14.19" fill="#f5f5f5"/>
  <rect x="200.25" y="500.8" width="35.89" height="14.19" fill="#f5f5f5"/>
  <rect x="239.27" y="500.8" width="35.89" height="14.19" fill="#f5f5f5"/>
  <rect x="278.3" y="500.8" width="35.89" height="14.19" fill="#f5f5f5"/>
  <rect x="317.34" y="500.8" width="35.89" height="14.19" fill="#f5f5f5"/>
  <rect x="356.36" y="500.8" width="35.89" height="14.19" fill="#f5f5f5"/>
  <rect x="395.39" y="500.8" width="35.89" height="14.19" fill="#f5f5f5"/>
  <rect x="434.43" y="500.8" width="35.89" height="14.19" fill="#f5f5f5"/>
  <rect x="473.44" y="500.8" width="35.89" height="14.19" fill="#f5f5f5"/>
  <rect x="512.48" y="500.8" width="35.89" height="14.19" fill="#f5f5f5"/>
  <rect x="551.51" y="500.8" width="35.89" height="14.19" fill="#f5f5f5"/>
  <rect x="590.53" y="500.8" width="35.89" height="14.19" fill="#f5f5f5"/>
  <rect x="629.57" y="500.8" width="35.89" height="14.19" fill="#f5f5f5"/>
  <rect x="668.6" y="500.8" width="35.89" height="14.19" fill="#f5f5f5"/>
  <rect x="707.62" y="500.8" width="35.89" height="14.19" fill="#f5f5f5"/>
  <rect x="141.71" y="483.02" width="35.89" height="14.19" fill="#f5f5f5"/>
  <rect x="122.18" y="483.02" width="16.37" height="14.19" fill="#f5f5f5"/>
  <rect x="180.72" y="483.02" width="35.89" height="14.19" fill="#f5f5f5"/>
  <rect x="219.76" y="483.02" width="35.89" height="14.19" fill="#f5f5f5"/>
  <rect x="258.79" y="483.02" width="35.89" height="14.19" fill="#f5f5f5"/>
  <rect x="297.81" y="483.02" width="35.89" height="14.19" fill="#f5f5f5"/>
  <rect x="336.85" y="483.02" width="35.89" height="14.19" fill="#f5f5f5"/>
  <rect x="375.88" y="483.02" width="35.89" height="14.19" fill="#f5f5f5"/>
  <rect x="414.9" y="483.02" width="35.89" height="14.19" fill="#f5f5f5"/>
  <rect x="453.93" y="483.02" width="35.89" height="14.19" fill="#f5f5f5"/>
  <rect x="492.97" y="483.02" width="35.89" height="14.19" fill="#f5f5f5"/>
  <rect x="531.99" y="483.02" width="35.89" height="14.19" fill="#f5f5f5"/>
  <rect x="571.02" y="483.02" width="35.89" height="14.19" fill="#f5f5f5"/>
  <rect x="610.06" y="483.02" width="35.89" height="14.19" fill="#f5f5f5"/>
  <rect x="649.07" y="483.02" width="35.89" height="14.19" fill="#f5f5f5"/>
  <rect x="688.11" y="483.02" width="35.89" height="14.19" fill="#f5f5f5"/>
  <rect x="727.14" y="483.02" width="16.37" height="14.19" fill="#f5f5f5"/>
  <rect x="122.18" y="465.24" width="35.89" height="14.19" fill="#f5f5f5"/>
  <rect x="161.22" y="465.24" width="35.89" height="14.19" fill="#f5f5f5"/>
  <rect x="200.25" y="465.24" width="35.89" height="14.19" fill="#f5f5f5"/>
  <rect x="239.27" y="465.24" width="35.89" height="14.19" fill="#f5f5f5"/>
  <rect x="278.3" y="465.24" width="35.89" height="14.19" fill="#f5f5f5"/>
  <rect x="317.34" y="465.24" width="35.89" height="14.19" fill="#f5f5f5"/>
  <rect x="356.36" y="465.24" width="35.89" height="14.19" fill="#f5f5f5"/>
  <rect x="395.39" y="465.24" width="35.89" height="14.19" fill="#f5f5f5"/>
  <rect x="434.43" y="465.24" width="35.89" height="14.19" fill="#f5f5f5"/>
  <rect x="473.44" y="465.24" width="35.89" height="14.19" fill="#f5f5f5"/>
  <rect x="512.48" y="465.24" width="35.89" height="14.19" fill="#f5f5f5"/>
  <rect x="551.51" y="465.24" width="35.89" height="14.19" fill="#f5f5f5"/>
  <rect x="590.53" y="465.24" width="35.89" height="14.19" fill="#f5f5f5"/>
  <rect x="629.57" y="465.24" width="35.89" height="14.19" fill="#f5f5f5"/>
  <rect x="668.6" y="465.24" width="35.89" height="14.19" fill="#f5f5f5"/>
  <rect x="707.62" y="465.24" width="35.89" height="14.19" fill="#f5f5f5"/>
  <rect x="141.71" y="447.46" width="35.89" height="14.19" fill="#f5f5f5"/>
  <rect x="122.18" y="447.46" width="16.37" height="14.19" fill="#f5f5f5"/>
  <rect x="180.72" y="447.46" width="35.89" height="14.19" fill="#f5f5f5"/>
  <rect x="219.76" y="447.46" width="35.89" height="14.19" fill="#f5f5f5"/>
  <rect x="258.79" y="447.46" width="35.89" height="14.19" fill="#f5f5f5"/>
  <rect x="297.81" y="447.46" width="35.89" height="14.19" fill="#f5f5f5"/>
  <rect x="336.85" y="447.46" width="35.89" height="14.19" fill="#f5f5f5"/>
  <rect x="375.88" y="447.46" width="35.89" height="14.19" fill="#f5f5f5"/>
  <rect x="414.9" y="447.46" width="35.89" height="14.19" fill="#f5f5f5"/>
  <rect x="453.93" y="447.46" width="35.89" height="14.19" fill="#f5f5f5"/>
  <rect x="492.97" y="447.46" width="35.89" height="14.19" fill="#f5f5f5"/>
  <rect x="531.99" y="447.46" width="35.89" height="14.19" fill="#f5f5f5"/>
  <rect x="571.02" y="447.46" width="35.89" height="14.19" fill="#f5f5f5"/>
  <rect x="610.06" y="447.46" width="35.89" height="14.19" fill="#f5f5f5"/>
  <rect x="649.07" y="447.46" width="35.89" height="14.19" fill="#f5f5f5"/>
  <rect x="688.11" y="447.46" width="35.89" height="14.19" fill="#f5f5f5"/>
  <rect x="727.14" y="447.46" width="16.37" height="14.19" fill="#f5f5f5"/>
  <rect x="122.18" y="429.68" width="35.89" height="14.19" fill="#f5f5f5"/>
  <rect x="161.22" y="429.68" width="35.89" height="14.19" fill="#f5f5f5"/>
  <rect x="200.25" y="429.68" width="35.89" height="14.19" fill="#f5f5f5"/>
  <rect x="239.27" y="429.68" width="35.89" height="14.19" fill="#f5f5f5"/>
  <rect x="278.3" y="429.68" width="35.89" height="14.19" fill="#f5f5f5"/>
  <rect x="317.34" y="429.68" width="35.89" height="14.19" fill="#f5f5f5"/>
  <rect x="356.36" y="429.68" width="35.89" height="14.19" fill="#f5f5f5"/>
  <rect x="395.39" y="429.68" width="35.89" height="14.19" fill="#f5f5f5"/>
  <rect x="434.43" y="429.68" width="35.89" height="14.19" fill="#f5f5f5"/>
  <rect x="473.44" y="429.68" width="35.89" height="14.19" fill="#f5f5f5"/>
  <rect x="512.48" y="429.68" width="35.89" height="14.19" fill="#f5f5f5"/>
  <rect x="551.51" y="429.68" width="35.89" height="14.19" fill="#f5f5f5"/>
  <rect x="590.53" y="429.68" width="35.89" height="14.19" fill="#f5f5f5"/>
  <rect x="629.57" y="429.68" width="35.89" height="14.19" fill="#f5f5f5"/>
  <rect x="668.6" y="429.68" width="35.89" height="14.19" fill="#f5f5f5"/>
  <rect x="707.62" y="429.68" width="35.89" height="14.19" fill="#f5f5f5"/>
  <rect x="141.71" y="411.9" width="35.89" height="14.19" fill="#f5f5f5"/>
  <rect x="122.18" y="411.9" width="16.37" height="14.19" fill="#f5f5f5"/>
  <rect x="180.72" y="411.9" width="35.89" height="14.19" fill="#f5f5f5"/>
  <rect x="219.76" y="411.9" width="35.89" height="14.19" fill="#f5f5f5"/>
  <rect x="258.79" y="411.9" width="35.89" height="14.19" fill="#f5f5f5"/>
  <rect x="297.81" y="411.9" width="35.89" height="14.19" fill="#f5f5f5"/>
  <rect x="336.85" y="411.9" width="35.89" height="14.19" fill="#f5f5f5"/>
  <rect x="375.88" y="411.9" width="35.89" height="14.19" fill="#f5f5f5"/>
  <rect x="414.9" y="411.9" width="35.89" height="14.19" fill="#f5f5f5"/>
  <rect x="453.93" y="411.9" width="35.89" height="14.19" fill="#f5f5f5"/>
  <rect x="492.97" y="411.9" width="35.89" height="14.19" fill="#f5f5f5"/>
  <rect x="531.99" y="411.9" width="35.89" height="14.19" fill="#f5f5f5"/>
  <rect x="571.02" y="411.9" width="35.89" height="14.19" fill="#f5f5f5"/>
  <rect x="610.06" y="411.9" width="35.89" height="14.19" fill="#f5f5f5"/>
  <rect x="649.07" y="411.9" width="35.89" height="14.19" fill="#f5f5f5"/>
  <rect x="688.11" y="411.9" width="35.89" height="14.19" fill="#f5f5f5"/>
  <rect x="727.14" y="411.9" width="16.37" height="14.19" fill="#f5f5f5"/>
  <rect x="122.18" y="394.12" width="35.89" height="14.19" fill="#f5f5f5"/>
  <rect x="161.22" y="394.12" width="35.89" height="14.19" fill="#f5f5f5"/>
  <rect x="200.25" y="394.12" width="35.89" height="14.19" fill="#f5f5f5"/>
  <rect x="239.27" y="394.12" width="35.89" height="14.19" fill="#f5f5f5"/>
  <rect x="278.3" y="394.12" width="35.89" height="14.19" fill="#f5f5f5"/>
  <rect x="317.34" y="394.12" width="35.89" height="14.19" fill="#f5f5f5"/>
  <rect x="356.36" y="394.12" width="35.89" height="14.19" fill="#f5f5f5"/>
  <rect x="395.39" y="394.12" width="35.89" height="14.19" fill="#f5f5f5"/>
  <rect x="434.43" y="394.12" width="35.89" height="14.19" fill="#f5f5f5"/>
  <rect x="473.44" y="394.12" width="35.89" height="14.19" fill="#f5f5f5"/>
  <rect x="512.48" y="394.12" width="35.89" height="14.19" fill="#f5f5f5"/>
  <rect x="551.51" y="394.12" width="35.89" height="14.19" fill="#f5f5f5"/>
  <rect x="590.53" y="394.12" width="35.89" height="14.19" fill="#f5f5f5"/>
  <rect x="629.57" y="394.12" width="35.89" height="14.19" fill="#f5f5f5"/>
  <rect x="668.6" y="394.12" width="35.89" height="14.19" fill="#f5f5f5"/>
  <rect x="707.62" y="394.12" width="35.89" height="14.19" fill="#f5f5f5"/>
  <rect x="141.71" y="376.32" width="35.89" height="14.19" fill="#f5f5f5"/>
  <rect x="122.18" y="376.32" width="16.37" height="14.19" fill="#f5f5f5"/>
  <rect x="180.72" y="376.32" width="35.89" height="14.19" fill="#f5f5f5"/>
  <rect x="219.76" y="376.32" width="35.89" height="14.19" fill="#f5f5f5"/>
  <rect x="258.79" y="376.32" width="35.89" height="14.19" fill="#f5f5f5"/>
  <rect x="297.81" y="376.32" width="35.89" height="14.19" fill="#f5f5f5"/>
  <rect x="336.85" y="376.32" width="35.89" height="14.19" fill="#f5f5f5"/>
  <rect x="375.88" y="376.32" width="35.89" height="14.19" fill="#f5f5f5"/>
  <rect x="414.9" y="376.32" width="35.89" height="14.19" fill="#f5f5f5"/>
  <rect x="453.93" y="376.32" width="35.89" height="14.19" fill="#f5f5f5"/>
  <rect x="492.97" y="376.32" width="35.89" height="14.19" fill="#f5f5f5"/>
  <rect x="531.99" y="376.32" width="35.89" height="14.19" fill="#f5f5f5"/>
  <rect x="571.02" y="376.32" width="35.89" height="14.19" fill="#f5f5f5"/>
  <rect x="610.06" y="376.32" width="35.89" height="14.19" fill="#f5f5f5"/>
  <rect x="649.07" y="376.32" width="35.89" height="14.19" fill="#f5f5f5"/>
  <rect x="688.11" y="376.32" width="35.89" height="14.19" fill="#f5f5f5"/>
  <rect x="727.14" y="376.32" width="16.37" height="14.19" fill="#f5f5f5"/>
  <rect x="122.18" y="358.54" width="35.89" height="14.19" fill="#f5f5f5"/>
  <rect x="161.22" y="358.54" width="35.89" height="14.19" fill="#f5f5f5"/>
  <rect x="200.25" y="358.54" width="35.89" height="14.19" fill="#f5f5f5"/>
  <rect x="239.27" y="358.54" width="35.89" height="14.19" fill="#f5f5f5"/>
  <rect x="278.3" y="358.54" width="35.89" height="14.19" fill="#f5f5f5"/>
  <rect x="317.34" y="358.54" width="35.89" height="14.19" fill="#f5f5f5"/>
  <rect x="356.36" y="358.54" width="35.89" height="14.19" fill="#f5f5f5"/>
  <rect x="395.39" y="358.54" width="35.89" height="14.19" fill="#f5f5f5"/>
  <rect x="434.43" y="358.54" width="35.89" height="14.19" fill="#f5f5f5"/>
  <rect x="473.44" y="358.54" width="35.89" height="14.19" fill="#f5f5f5"/>
  <rect x="512.48" y="358.54" width="35.89" height="14.19" fill="#f5f5f5"/>
  <rect x="551.51" y="358.54" width="35.89" height="14.19" fill="#f5f5f5"/>
  <rect x="590.53" y="358.54" width="35.89" height="14.19" fill="#f5f5f5"/>
  <rect x="629.57" y="358.54" width="35.89" height="14.19" fill="#f5f5f5"/>
  <rect x="668.6" y="358.54" width="35.89" height="14.19" fill="#f5f5f5"/>
  <rect x="707.62" y="358.54" width="35.89" height="14.19" fill="#f5f5f5"/>
  <rect x="331.16" y="256.19" width="97.86" height="386.09" fill="#0071f2" data-primary="true"/>
  <ellipse cx="480.63" cy="451.58" rx="61.67" ry="94.18" fill="#0071f2" data-primary="true"/>
  <g opacity="0.4">
    <ellipse cx="480.63" cy="451.58" rx="61.67" ry="94.18" fill="#fff"/>
  </g>
  <g opacity="0.4">
    <ellipse cx="480.63" cy="451.58" rx="47.62" ry="72.73" fill="#fff"/>
  </g>
  <path d="M384.45,554.79c-26,0-47.09-47.2-47.09-105.22s21.13-105.23,47.09-105.23,47.08,47.21,47.08,105.23S410.41,554.79,384.45,554.79Zm0-209.45c-25.41,0-46.09,46.76-46.09,104.23S359,553.79,384.45,553.79,430.53,507,430.53,449.57,409.86,345.34,384.45,345.34Z" fill="#fff"/>
  <rect x="187.05" y="267.58" width="79.76" height="361.96" fill="#2f2e41" data-secondary="true"/>
  <rect x="177.66" y="344.67" width="12.74" height="191.7" fill="#2f2e41" data-secondary="true"/>
  <path d="M542,268.13s.4,7.31,0,15.45l35.12-10a39.08,39.08,0,0,1-8-15.41l8-12.91V228.37l-13.36,1.87Z" fill="#f9b499"/>
  <path d="M542,268.13s.4,10.66,0,15.45c0,0,17.35-10,15.84-25.38Z" fill="#f29079"/>
  <path d="M439.54,504.74A78.69,78.69,0,0,1,429,504a.5.5,0,1,1,.15-1c.13,0,14.11,2,23.25-.94a.49.49,0,0,1,.63.32.49.49,0,0,1-.32.63A44.16,44.16,0,0,1,439.54,504.74Z" fill="red"/>
  <path d="M469.91,536.87a.45.45,0,0,1-.16,0c-20-6.66-40.85-25.38-41.06-25.56a.51.51,0,0,1,0-.71.51.51,0,0,1,.71,0c.2.19,20.93,18.77,40.71,25.36a.5.5,0,0,1,.31.64A.49.49,0,0,1,469.91,536.87Z" fill="red"/>
  <path d="M585.87,586.64c-13.14,22.23-36.56,38.76-47.3,45.54a15.48,15.48,0,0,1-15,1c-7.45-3.6-2.07-9-2.07-9L538.7,601a17.14,17.14,0,0,0,3.45-10.53c0-.24,0-.48,0-.7a8.45,8.45,0,0,0-4.4-6.88l-67.81-37.24,22-34.71,56.37,40.21C564.42,559.83,585.87,586.64,585.87,586.64Z" fill="#f9b499"/>
  <path d="M603.3,608.09c-2,4.69-12.74,12.06-12.74,12.06l-38.27,19.44c-30.9,20.78-62.94,0-62.94,0-4-10.05,32.17-15.41,32.17-15.41s-5.38,5.38,2.07,9a15.48,15.48,0,0,0,15-1c10.74-6.78,34.16-23.31,47.3-45.54C595.92,585.3,603.3,608.09,603.3,608.09Z" fill="#0071f2" data-primary="true"/>
  <path d="M567.45,566.35l35.85,17.09s8,13.25,9.38,25.32c0,0,5.36,11.39,12.74,12.06,0,0-1.16-55.27,3.11-65.17S598,533.73,598,533.73l-49.66,17.38A99.18,99.18,0,0,1,567.45,566.35Z" fill="#f9b499"/>
  <path d="M612.68,608.76s-32.84,9.38-14.75,16.09l24.14,4.69s8.55,2.68,13-8.72l21.19-59s-8.49-9.12-19.66-9.92c0,0-5.62,2.9-8.06,3.73L616,599.37Z" fill="#0071f2" data-primary="true"/>
  <rect x="190.4" y="256.19" width="140.76" height="386.09" fill="#0071f2" data-primary="true"/>
  <g opacity="0.4">
    <rect x="190.4" y="256.19" width="140.76" height="386.09" fill="#fff"/>
  </g>
  <path d="M227.94,630A15.94,15.94,0,0,1,212,614.12v-315a15.92,15.92,0,1,1,31.83,0v315A15.93,15.93,0,0,1,227.94,630Zm0-345.87A14.93,14.93,0,0,0,213,299.09v315a14.92,14.92,0,1,0,29.83,0v-315A14.93,14.93,0,0,0,227.94,284.17Z" fill="#fff"/>
  <path d="M293,630A15.93,15.93,0,0,1,277,614.12v-315a15.92,15.92,0,1,1,31.83,0v315A15.94,15.94,0,0,1,293,630Zm0-345.87A14.93,14.93,0,0,0,278,299.09v315a14.92,14.92,0,1,0,29.83,0v-315A14.93,14.93,0,0,0,293,284.17Z" fill="#fff"/>
  <path d="M429,302.34H331.85a.51.51,0,0,1-.5-.5.5.5,0,0,1,.5-.5H429a.5.5,0,0,1,.5.5A.5.5,0,0,1,429,302.34Z" fill="#fff"/>
  <path d="M372,297.28a.5.5,0,0,1-.5-.5V258.2a.5.5,0,0,1,1,0v38.58A.5.5,0,0,1,372,297.28Z" fill="#fff"/>
  <rect x="380.76" y="267.58" width="21.45" height="23.46" rx="10.72" fill="#2f2e41" data-secondary="true"/>
  <rect x="405.56" y="267.58" width="21.45" height="23.46" rx="10.72" fill="#2f2e41" data-secondary="true"/>
  <path d="M395.2,290.88a.51.51,0,0,1-.41-.2c-8.47-11.56-.07-22.63,0-22.74a.5.5,0,1,1,.79.61c-.33.43-8,10.6,0,21.54a.49.49,0,0,1-.4.79Z" fill="#fff"/>
  <path d="M420,290.88a.48.48,0,0,1-.39-.19c-9.17-11.57-.09-22.66,0-22.77a.5.5,0,0,1,.76.64c-.35.43-8.65,10.59,0,21.51a.49.49,0,0,1-.08.7A.45.45,0,0,1,420,290.88Z" fill="#fff"/>
  <rect x="337.86" y="274.29" width="28.15" height="7.37" fill="#2f2e41" data-secondary="true"/>
  <g opacity="0.4">
    <ellipse cx="387.13" cy="447.55" rx="41.89" ry="94.18" fill="#fff"/>
  </g>
  <ellipse cx="375.4" cy="449.9" rx="30.83" ry="80.43" fill="#2f2e41" data-secondary="true"/>
  <path d="M510.58,307.66,451.8,280.79a7,7,0,0,1-3.85-4.86l-3.69-17.38a3.56,3.56,0,0,0-3.17-2.81L421.37,254a4,4,0,0,0-2.53.61L407,262.1a2,2,0,0,0-.78,2.49h0a2,2,0,0,0,2.41,1.18l4-1.08a.41.41,0,0,1,.38.7l-3.11,2.77a2,2,0,0,0-.09,3h0a2,2,0,0,0,2.53.28l8.94-5.64a5.32,5.32,0,0,1,5-.34l.79.37a3.35,3.35,0,0,1,2,3v16.6a6.13,6.13,0,0,0,3,5.24l64.75,39.24,14.82-19.53A2,2,0,0,0,510.58,307.66Z" fill="#f9b499"/>
  <path d="M444.82,271.39a.48.48,0,0,1-.37-.17c-17-18.71-22.58-14.9-22.63-14.85a.58.58,0,0,1-.18.08,1.32,1.32,0,0,0-1,.84c-.62,1.86,2.09,6,3.19,7.4a.5.5,0,0,1-.09.7.51.51,0,0,1-.7-.09c-.44-.57-4.25-5.63-3.34-8.33a2.3,2.3,0,0,1,1.59-1.46c.87-.56,7.09-3.44,23.9,15a.51.51,0,0,1-.37.84Z" fill="#f29079"/>
  <path d="M439,295.47a.47.47,0,0,1-.35-.15.5.5,0,0,1,0-.71,55.35,55.35,0,0,0,9.32-12.5.5.5,0,0,1,.9.44,56.37,56.37,0,0,1-9.52,12.77A.47.47,0,0,1,439,295.47Z" fill="#f29079"/>
  <path d="M351.2,400.05A52.4,52.4,0,0,1,364.09,410a25.25,25.25,0,0,0,5.12,4.39c10.64,6.8,45.21,29.79,63.8,52.59l-23.2,32.42s-19-9.82-22.68-16.25L385,488.65a7,7,0,0,1-8.2,4.24c-1.5-.37-3.09-.81-4.52-1.3a5.81,5.81,0,0,1-3.87-5.84c.24-4.15.24-10.82-1.84-14.88,0,0-2.52-2.87.17-7.56s-1.7-19.26-1.7-19.26l-19.42-15.93A143.7,143.7,0,0,1,351.2,400.05Z" fill="#e6e6e6"/>
  <rect x="508.73" y="192.54" width="54.02" height="81.91" rx="27.01" transform="translate(51.22 -93.27) rotate(10.45)" fill="#f9b499"/>
  <path d="M509.62,226.18s-11.56-7.53-6.2-20.93c0,0-6.61-6.54,2.39-12.32,0,0-5.07-15.17,15-15.84,0,0-4.69-14.74,8.72-16.75,0,0,12.06-2,16.75,9.38,0,0,11.4-13.95,24.47,8.11,0,0,23.12-3.42,26.47,12,0,0,1.35,12.06-3.35,19.44,0,0,17.11,6.89,3.53,24.22,0,0,2.51,20-19.61,17.33,0,0,.67,2.69-8.72,7.38,0,0-2-15.61,1.68-22.89l-6-10.63s-1.75-9.38-9.79-13.4c0,0-10.06-4.69-13.41-10.06,0,0-10.38,1-18.93-3.51,0,0-8.07,4.69-11,17.17Z" fill="#2f2e41" data-secondary="true"/>
  <circle cx="570.79" cy="228.37" r="10.39" fill="#f9b499"/>
  <path d="M660.94,463.31c-38.2,18.09-100.54-2-100.54-2-5.44-5.42-9.43-36.53-11.14-52.43a14.62,14.62,0,0,0-8.21-11.65c-16.47-7.89-17.52-29.8-17.52-29.8l-28.82-36.87c-1.34-8.71,8-17.43,8-17.43,25.8-33.33,66.27-42.94,81.28-45.44a12.84,12.84,0,0,1,10.62,3.08C623.52,296.24,630.78,338,630.78,338l8.82,64.26a39.26,39.26,0,0,0,2,8Z" fill="#0071f2" data-primary="true"/>
  <path d="M656.92,531.68C628.1,582,548.33,551.11,548.33,551.11l-61-33.51-18.77,30.16c-75.07-24.8-57-61-57-61C424.33,439.85,558.39,474,558.39,474c-1.34-8.71,2-12.69,2-12.69s62.34,20.06,100.54,2C673,516.26,656.92,531.68,656.92,531.68Z" fill="#2f2e41" data-secondary="true"/>
  <g opacity="0.2">
    <path d="M561.55,499.87c-18.1,0-49.16-7.51-50.87-7.93-61.4-12.54-76.54-2.85-76.68-2.75a.5.5,0,1,1-.57-.83c.61-.41,15.63-10,77.47,2.61.56.14,54.77,13.25,61.87,5.51a.5.5,0,0,1,.7,0,.5.5,0,0,1,0,.71C571.7,499.12,567.28,499.87,561.55,499.87Z"/>
  </g>
  <g opacity="0.2">
    <path d="M580.76,499.89a.49.49,0,0,1-.44-.27c-5-10-22.09-25.06-22.26-25.21a.51.51,0,0,1,0-.71.5.5,0,0,1,.71,0c.71.62,17.4,15.37,22.49,25.51a.51.51,0,0,1-.22.67A.64.64,0,0,1,580.76,499.89Z"/>
  </g>
  <g opacity="0.2">
    <path d="M487.34,518.1a.45.45,0,0,1-.2,0c-.39-.17-39-16.81-49.6-21.45a.5.5,0,0,1-.26-.66.51.51,0,0,1,.66-.26c10.6,4.64,49.21,21.28,49.6,21.45a.5.5,0,0,1-.2,1Z"/>
  </g>
  <path d="M495.07,332.07a52.12,52.12,0,0,0-6.83,15.76,19.63,19.63,0,0,1-3.6,7.06c-6.93,8.73-25.22,32-31.64,42.65a7.81,7.81,0,0,1-3.58,3.14c-10.88,4.73-56.06,23.92-76,25.09,0,0-9.23-9.23-14.5-11.56a23.64,23.64,0,0,1-5-2.91,45.23,45.23,0,0,1-4.6-4.14l-2.37,10.23s7.46-.51,7.19,5.75A2.3,2.3,0,0,1,353,425c-1.55.9-4.66,2.46-7.38,2.41,0,0-1.56,14.58-.94,17.51,0,0,1.95,2.93,6.64.92,0,0-1.35,6,6.7,5.7,0,0,2.84,7,9.47,5,0,0,14-8.35,17-12.55,0,0,48.94-.17,65.41-8.44a10.14,10.14,0,0,1,4.13-1.12c3.15-.13,8.86-.91,11.23-4.7,0,0,13.24-13.25,21.59-18.38a20.23,20.23,0,0,0,3.78-3c2.54-2.59,7.15-7.34,10.82-11.47l31.73-41.39a7.46,7.46,0,0,0,.07-9,26.68,26.68,0,0,0-7.44-6.3,15.64,15.64,0,0,0-3.13-1.46l-23.54-8A3.5,3.5,0,0,0,495.07,332.07Z" fill="#f9b499"/>
  <path d="M384.45,444.55a.57.57,0,0,1-.18,0,14.7,14.7,0,0,1-9.37-11.73.5.5,0,0,1,.46-.54.51.51,0,0,1,.54.45,13.38,13.38,0,0,0,8.72,10.88.51.51,0,0,1,.3.64A.52.52,0,0,1,384.45,444.55Z" fill="#f29079"/>
</svg>