<?xml version="1.0" encoding="UTF-8"?>
<svg width="735px" height="630px" viewBox="0 0 735 630" version="1.1" xmlns="http://www.w3.org/2000/svg" xmlns:xlink="http://www.w3.org/1999/xlink">
    <!-- Generator: sketchtool 51.2 (57519) - http://www.bohemiancoding.com/sketch -->
    <title>9B24B6C7-8AFC-4779-9D6C-B62607A8EA69</title>
    <desc>Created with sketchtool.</desc>
    <defs></defs>
    <g id="website" stroke="none" stroke-width="1" fill="none" fill-rule="evenodd">
        <g id="magic-appliance-repair_home-page_desktop" transform="translate(-715.000000, -211.000000)">
            <g id="top" transform="translate(110.000000, 26.000000)">
                <g id="hero" transform="translate(0.000000, 186.000000)">
                    <g id="repairman" transform="translate(606.000000, 0.000000)">
                        <g id="illustration">
                            <g id="tube+water" transform="translate(354.000000, 402.000000)" stroke="#575552" stroke-width="2">
                                <path d="M78.3866946,45.1344073 C56.8296194,37.8605387 43.4560955,34.2236044 38.2661231,34.2236044 C30.4811645,34.2236044 29.2426765,37.8870505 22.6595817,45.1344073 C16.0764869,52.3817641 3.41327148,58.7861194 0.665027205,76.6440813 C-1.16713565,88.5493892 5.19214912,91.8057016 19.7428815,86.4130183 C27.2437572,80.8427834 33.4181711,78.7186326 38.2661231,80.040566 C43.1140751,81.3624994 54.4655224,82.0234661 72.320465,82.0234661 L110.174557,82.0234661 L128.347368,93.3418471 L157.177592,98.8743434 L157.177592,88.627742 C161.285722,87.1512595 163.983141,86.4130183 165.269852,86.4130183 C167.199918,86.4130183 188.342227,84.1982946 190.084677,86.4130183 C191.827128,88.627742 181.303081,93.034777 190.084677,94.9559861 C198.866273,96.8771951 213.251938,103.498954 229.133469,94.9559861 C245.015,86.4130183 266.95737,85.9957359 269.514977,88.627742 C272.072584,91.2597481 297.634636,98.0559523 314.867213,93.3418471 C332.099791,88.627742 373.807545,79.4151815 375.211425,76.6440813 C376.615305,73.8729811 379.190164,66.31122 377.902735,64.7844192 C376.615305,63.2576185 367.649664,62.3669847 354.015204,58.7861194 C340.380744,55.2052541 351.805871,50.5763306 348.765209,45.1344073 C345.724546,39.692484 326.674041,34.0845103 317.655565,36.0577062 C308.63709,38.0309021 292.562552,32.3895027 284.724759,34.2236044 C276.886966,36.0577062 202.912607,38.2810559 192.338218,38.2810559 C185.288625,38.2810559 170.178042,36.9285721 147.006469,34.2236044 L78.3866946,45.1344073 Z" id="Path-39" fill="#E0DBD6" stroke-linecap="round" stroke-linejoin="round"></path>
                                <path d="M167.673364,16.9447725 C175.259199,16.9447725 192.710719,12.7460574 220.027927,4.34862727 C236.868852,-0.828347432 260.193929,-0.816144707 277.244492,6.5098327 C287.851184,11.0671244 293.798797,16.8062502 302.806923,28.5014943 C308.81234,36.2983237 312.147709,44.3606392 312.813029,52.6884407 L305.643091,52.6884407 C303.077665,42.6148063 298.76409,34.5524908 292.702364,28.5014943 C283.609777,19.4249995 277.244492,11.6965364 256.733393,9.15667037 C236.222295,6.61680433 230.628531,9.62242292 190.182844,20.971828 L180.823301,23.2570448 L167.673364,23.2570448 L167.673364,16.9447725 Z" id="Path-36" fill="#FFFFFF" stroke-linecap="round" stroke-linejoin="round"></path>
                                <path d="M188.045373,13.215712 C186.179123,17.1333966 186.527581,19.8598397 189.090746,21.3950413" id="Path-37"></path>
                                <path d="M194.471495,12 C192.321164,15.394826 192.527581,17.8598397 195.090746,19.3950413" id="Path-37-Copy"></path>
                                <path d="M200.471495,10 C198.321164,13.394826 198.527581,15.8598397 201.090746,17.3950413" id="Path-37-Copy-2"></path>
                                <path d="M206.045373,8.14370264 C204.179123,12.1093935 204.527581,14.8598397 207.090746,16.3950413" id="Path-37-Copy-3"></path>
                                <path d="M212.045373,6.45041051 C210.179123,10.2116295 210.527581,12.8598397 213.090746,14.3950413" id="Path-37-Copy-4"></path>
                                <path d="M219.598115,4.1649988 C217.363371,8.11649222 217.527581,10.8598397 220.090746,12.3950413" id="Path-37-Copy-5"></path>
                                <path d="M226.715851,2.30421103 C225.303897,6.26870051 225.879502,9.01854605 228.442667,10.5537476" id="Path-37-Copy-6"></path>
                                <path d="M233.804788,1 C232.235157,4.83510326 232.731924,7.52025569 235.295089,9.05545727" id="Path-37-Copy-7"></path>
                                <path d="M238.808828,1 C237.33307,4.56093031 237.876773,7.10899625 240.439938,8.64419784" id="Path-37-Copy-8"></path>
                                <path d="M245.808828,1 C244.334942,4.31121275 244.879582,6.73441992 247.442747,8.26962151" id="Path-37-Copy-9"></path>
                                <path d="M251.930212,1.18992431 C250.454454,4.75085461 250.998157,7.29892056 253.561322,8.83412214" id="Path-37-Copy-10" transform="translate(252.341353, 5.012023) rotate(18.000000) translate(-252.341353, -5.012023) "></path>
                                <path d="M258.899721,1.18968647 C257.535037,5.04751744 258.134277,7.74403371 260.697441,9.2792353" id="Path-37-Copy-11" transform="translate(259.442974, 5.234461) rotate(18.000000) translate(-259.442974, -5.234461) "></path>
                                <path d="M265.758558,3.00998496 C264.393873,6.86781592 264.993113,9.56433219 267.556278,11.0995338" id="Path-37-Copy-12" transform="translate(266.301810, 7.054759) rotate(34.000000) translate(-266.301810, -7.054759) "></path>
                                <path d="M272.132737,4.76893121 C270.768052,8.62676217 271.367292,11.3232784 273.930457,12.85848" id="Path-37-Copy-13" transform="translate(272.675989, 8.813706) rotate(43.000000) translate(-272.675989, -8.813706) "></path>
                                <path d="M279.132737,7.76893121 C277.768052,11.6267622 278.367292,14.3232784 280.930457,15.85848" id="Path-37-Copy-14" transform="translate(279.675989, 11.813706) rotate(43.000000) translate(-279.675989, -11.813706) "></path>
                                <path d="M285.132737,11.7689312 C283.768052,15.6267622 284.367292,18.3232784 286.930457,19.85848" id="Path-37-Copy-15" transform="translate(285.675989, 15.813706) rotate(43.000000) translate(-285.675989, -15.813706) "></path>
                                <path d="M290.132737,16.7689312 C288.768052,20.6267622 289.367292,23.3232784 291.930457,24.85848" id="Path-37-Copy-16" transform="translate(290.675989, 20.813706) rotate(43.000000) translate(-290.675989, -20.813706) "></path>
                                <path d="M296.132737,22.7689312 C294.768052,26.6267622 295.367292,29.3232784 297.930457,30.85848" id="Path-37-Copy-17" transform="translate(296.675989, 26.813706) rotate(43.000000) translate(-296.675989, -26.813706) "></path>
                                <path d="M301.045807,28.4553619 C299.030222,32.1683068 299.304012,34.79238 301.867177,36.3275816" id="Path-37-Copy-18" transform="translate(300.791040, 32.391472) rotate(43.000000) translate(-300.791040, -32.391472) "></path>
                                <path d="M305.473329,35.7479479 C303.611079,39.733008 303.961536,42.4931389 306.524701,44.0283405" id="Path-37-Copy-19" transform="translate(305.411277, 39.888144) rotate(60.000000) translate(-305.411277, -39.888144) "></path>
                                <path d="M307.440385,42.4322838 C305.920232,45.9637908 306.441738,48.4971451 309.004902,50.0323467" id="Path-37-Copy-20" transform="translate(307.798197, 46.232315) rotate(79.000000) translate(-307.798197, -46.232315) "></path>
                                <path d="M303.413609,53.7767399 L314.311607,53.1875088 L314.311607,59.8951621 C312.4427,61.8839521 310.433852,62.5975405 308.285064,62.0359272 C306.136276,61.4743138 304.412786,60.5726468 303.114596,59.3309259 L303.413609,53.7767399 Z" id="Path-38" fill="#575552" stroke-linecap="round" stroke-linejoin="round"></path>
                            </g>
                            <g id="washing-machine" transform="translate(208.000000, 0.000000)">
                                <polygon id="Path-35" stroke="#575552" stroke-width="2" fill="#FFFFFF" stroke-linecap="round" stroke-linejoin="round" points="273.72467 449.195969 273.72467 458.461794 302.165868 458.461794 303.518633 447.954908"></polygon>
                                <path d="M0.531224784,5.26695216 C0.531224784,6.91343212 2.74938982,154.50201 7.1857199,448.032684 L308.690901,452.357081 C312.010578,452.699506 313.670416,451.258041 313.670416,448.032684 C313.670416,446.480591 313.612504,412.95325 313.670416,346.494472 C313.696206,316.898932 313.177773,280.920559 313.670416,238.073494 C313.865669,221.091669 316.278978,198.207943 316.889485,169.296675 C317.455228,142.50524 318.034867,90.7724268 318.628402,14.0982362 C317.410435,5.2956591 314.097935,0.894370553 308.690901,0.894370553 C300.580351,0.894370553 10.9700696,0.841996711 7.1857199,0.894370553 C3.40137016,0.946744396 0.531224784,2.79723222 0.531224784,5.26695216 Z" id="Path-29" stroke="#575552" stroke-width="2" fill="#FFFFFF" stroke-linecap="round" stroke-linejoin="round"></path>
                                <path d="M356.74074,322 C402.171275,322 439,280.957795 439,230.32967 C439,215.68155 434.588572,191.075517 429.106318,178.794147 C415.640321,148.627559 389.026963,138.65934 356.74074,138.65934 C323.642868,138.65934 287.533319,162.94731 274.481481,194.351405 C269.61821,206.052946 266,216.586059 266,230.32967 C266,252.392985 281.760678,275.79685 293.413139,291.615737 C308.499284,312.096046 331.108454,322 356.74074,322 Z" id="Oval-6-Copy-5" fill="#FFFFFF" opacity="0.800000012"></path>
                                <path d="M160.277189,332.34066 C208.863231,332.34066 248.25,288.98362 248.25,235.5 C248.25,220.025707 243.532164,194.03186 237.669124,181.057804 C223.267807,149.18978 194.805943,138.65934 160.277189,138.65934 C124.880409,138.65934 86.2627693,164.317184 72.3043777,197.492512 C67.1033143,209.854036 63.2337917,220.981231 63.2337917,235.5 C63.2337917,258.807716 80.0891721,283.53159 92.5509888,300.242684 C108.684984,321.87811 132.864539,332.34066 160.277189,332.34066 Z" id="Oval-6-Copy-2" stroke="#575552" stroke-width="2" fill="#B7B3AE"></path>
                                <path d="M159.505031,316.681321 C199.819039,316.681321 232.5,280.335205 232.5,235.5 C232.5,222.527933 228.5854,200.737346 223.720575,189.861222 C211.771159,163.146325 188.15508,154.318679 159.505031,154.318679 C130.134743,154.318679 98.0919625,175.827596 86.5100619,203.638404 C82.1945074,214.001043 78.9837917,223.328947 78.9837917,235.5 C78.9837917,255.038809 92.9694534,275.76478 103.309579,289.773655 C116.696675,307.910587 136.759532,316.681321 159.505031,316.681321 Z" id="Oval-6-Copy" stroke="#575552" stroke-width="2" fill="#FFFFFF"></path>
                                <path d="M355.873867,339.028458 C325.401845,339.028458 298.523745,327.250689 280.589125,302.895534 C266.736515,284.083736 248,256.251893 248,230.014229 C248,213.670346 252.301378,201.144382 258.082903,187.228926 C273.599113,149.88322 316.526651,121 355.873867,121 C394.256181,121 425.894515,132.854192 441.903082,168.728257 C448.420462,183.333245 453.66483,212.594706 453.66483,230.014229 C453.66483,290.221125 409.882324,339.028458 355.873867,339.028458 Z M355.507763,321.772795 C400.320992,321.772795 436.649292,280.857711 436.649292,230.386398 C436.649292,215.783648 432.297806,191.253828 426.890044,179.010497 C413.607022,148.937344 387.355283,139 355.507763,139 C322.859622,139 287.240727,163.212743 274.366235,194.519569 C269.569046,206.184866 266,216.685355 266,230.386398 C266,252.381376 281.546523,275.712751 293.040652,291.482642 C307.921807,311.899517 330.223766,321.772795 355.507763,321.772795 Z" id="Combined-Shape" stroke="#575552" stroke-width="2" fill="#B7B3AE"></path>
                                <path d="M158.016208,295 C187.563442,295 211.516208,268.360943 211.516208,235.5 C211.516208,225.992419 208.647092,210.021505 205.081528,202.050097 C196.323477,182.470022 179.014609,176 158.016208,176 C136.489925,176 113.004899,191.764471 104.516208,212.147769 C101.353221,219.742829 99,226.579504 99,235.5 C99,249.820525 109.250472,265.011154 116.829032,275.278639 C126.640799,288.57169 141.345413,295 158.016208,295 Z" id="Oval-6" stroke="#575552" stroke-width="2" fill="#B7B3AE"></path>
                                <path d="M155.008955,277.7303 L99.3915817,229.359756 C99.5741132,227.675654 101.038638,222.390736 103.785157,213.505003 C106.531676,204.619269 96.7185754,193.618525 74.3458565,180.502771 C125.690777,177.535297 156.444116,176.321743 166.605872,176.86211 C176.767627,177.402478 186.144036,180.749995 194.735097,186.90466 C201.164556,193.661862 205.39203,199.435961 207.41752,204.226955 C209.44301,209.01795 210.509062,216.072738 210.615676,225.391321 L176.520662,277.016528 L155.008955,277.7303 Z" id="Path-60" stroke="#575552" stroke-width="2" fill="#F9D496"></path>
                                <path d="M433,182.278634 C445.466104,209.968214 445.466104,241.914415 433,278.117237 L444.241651,286.000512 C461.903171,265.703992 470.156824,245.932807 469.002608,226.686956 C467.848393,207.441105 460.821728,189.878786 447.922613,174 L433,182.278634 Z" id="Path-28" stroke="#575552" stroke-width="2" fill="#E3855E"></path>
                                <path d="M7,398 L313.472394,398" id="Path-30" stroke="#575552" stroke-width="2"></path>
                                <path d="M1,85.25 C106.201503,85.1182525 174.020965,85.122799 204.458388,85.2636397 C234.318128,85.4018072 254.619977,84.5894793 265.5456,85.25 C293.176717,86.9204699 310.501885,86.9204699 317.521105,85.25" id="Path-30-Copy" stroke="#575552" stroke-width="2"></path>
                                <path d="M1,19.1083333 L318.061724,19.1083333" id="Path-30-Copy-2" stroke="#575552" stroke-width="2"></path>
                                <path d="M204.5,19.5 C205.266057,47.9251846 205.52141,65.4553368 205.266057,72.0904567 C205.010705,78.7255766 204.755352,83.0065326 204.5,84.9333247" id="Line-4" stroke="#575552" stroke-width="2" stroke-linecap="square"></path>
                                <path d="M172.5,66.5 L194.5,66.5" id="Line-5" stroke="#575552" stroke-width="2" stroke-linecap="round"></path>
                                <path d="M262.5,36.25 L297,36.25" id="Line-5-Copy" stroke="#575552" stroke-width="2" stroke-linecap="round"></path>
                                <path d="M157.5,73.5 L194.5,73.5" id="Line-6" stroke="#575552" stroke-width="2" stroke-linecap="round"></path>
                                <polygon id="Path-31" stroke="#575552" stroke-width="2" stroke-linecap="round" stroke-linejoin="round" points="223.212815 52.4569637 225.704721 63.8255344 297.891206 63.8255344 297.891206 52.4569637"></polygon>
                                <path d="M275.493959,52.741956 L297.317323,63.4478454" id="Path-32" stroke="#575552" stroke-width="2"></path>
                                <path d="M121.207204,57.2772938 C123.930805,56.8072537 125,54.7614237 125,52 C125,51.055092 124.600789,50.3809414 124.145309,49.6272132 C123.269682,48.1782265 121.816516,47 120,47 C119.00102,47 117.410535,47.6041536 116.629638,48.1088574 C115.251946,48.9992784 115,50.2375558 115,52 C115,53.7129541 116.629638,58.0672919 121.207204,57.2772938 Z" id="Oval-7" stroke="#575552" stroke-width="2" fill="#B7B3AE"></path>
                                <path d="M60.6216119,66.7256277 C68.7924144,65.3661028 72,59.4488272 72,51.4617972 C72,48.7287837 70.8023664,46.7788976 69.435926,44.5988449 C66.8090453,40.4078546 62.4495474,37 57,37 C54.0030614,37 49.2316052,38.7474293 46.8889151,40.2072141 C42.7558367,42.7826317 42,46.364175 42,51.4617972 C42,56.4162761 46.8889151,69.010586 60.6216119,66.7256277 Z" id="Oval-7-Copy-3" stroke="#575552" stroke-width="2" fill="#E0DBD6"></path>
                                <path d="M135.207204,57.2772938 C137.930805,56.8072537 139,54.7614237 139,52 C139,51.055092 138.600789,50.3809414 138.145309,49.6272132 C137.269682,48.1782265 135.816516,47 134,47 C133.00102,47 131.410535,47.6041536 130.629638,48.1088574 C129.251946,48.9992784 129,50.2375558 129,52 C129,53.7129541 130.629638,58.0672919 135.207204,57.2772938 Z" id="Oval-7-Copy" stroke="#575552" stroke-width="2" fill="#B7B3AE"></path>
                                <path d="M152.207204,57.2772938 C154.930805,56.8072537 156,54.7614237 156,52 C156,51.055092 155.600789,50.3809414 155.145309,49.6272132 C154.269682,48.1782265 152.816516,47 151,47 C150.00102,47 148.410535,47.6041536 147.629638,48.1088574 C146.251946,48.9992784 146,50.2375558 146,52 C146,53.7129541 147.629638,58.0672919 152.207204,57.2772938 Z" id="Oval-7-Copy-2" stroke="#575552" stroke-width="2" fill="#B7B3AE"></path>
                                <path d="M46.1114648,37.3906222 L67.3542081,63.4900141 L71.0685757,61.2361585 C58.3560927,43.2328558 51.9998512,34.2312045 51.9998512,34.2312045 C51.9998512,34.2312045 50.0370557,35.2843437 46.1114648,37.3906222 Z" id="Path-33" stroke="#575552" stroke-width="2" fill="#F5F3F0" stroke-linecap="round" stroke-linejoin="round"></path>
                                <path d="M46.1014154,37.9505968 L46.1014154,45.8924092 C57.0277117,59.32361 62.7694514,66.0392103 63.3266345,66.0392103 C63.8838175,66.0392103 65.3530761,65.2389808 67.7344102,63.6385219" id="Path-34" stroke="#575552" stroke-width="2" stroke-linecap="round"></path>
                            </g>
                            <g id="repairman" transform="translate(0.000000, 112.000000)">
                                <path d="M287,35.9787147 L300.042718,24.6311931 C304.717021,18.2691721 311.231861,14.464231 319.587238,13.2163698 C327.942616,11.9685087 334.107525,16.118203 338.081967,25.6654529 L341.21811,47.5661064 L341.21811,62.4092882 L358.403044,83.1836453 L352.09452,89.315 L321.020706,89.315 C307.035381,88.3102685 300.042718,87.8079028 300.042718,87.8079028 C300.042718,87.8079028 296.593268,80.6110342 289.694368,66.2172972 L287,35.9787147 Z" id="Path-23" fill="#575552"></path>
                                <g id="face" transform="translate(271.000000, 36.000000)" stroke="#575552" stroke-linecap="round" stroke-linejoin="round" stroke-width="2">
                                    <path d="M16.2747937,0.31419475 C12.028537,1.28612732 10.3558482,2.25805989 4.84431908,1.28612732 C1.16996635,0.638172273 -0.23480541,22.947208 0.630003807,68.2132346 L19.0198024,77.0075621 L29.1289441,75.000466 L48.3146714,73.2736723 L57.8416966,65.8397896 L67.8634882,64.6918532 L78.5846275,57.8489143 L80.579016,53.3161038 C76.5654647,52.3244642 73.524935,51.5554551 71.4574269,51.0090766 C69.3899189,50.4626981 66.5811778,49.6859255 63.0312038,48.6787589 C56.6488114,49.7178337 51.3321904,49.7178337 47.0813405,48.6787589 C42.8304907,47.6396841 38.6522453,46.0808546 34.5466045,44.0022704 C23.5231117,29.2974717 17.4325081,14.7347798 16.2747937,0.31419475 Z" id="Path-20" fill="#F6E8D0"></path>
                                    <path d="M45.7880379,65.7602619 C42.1962549,64.5586552 41.5322205,62.1886868 43.7959346,58.6503568 C46.0596488,55.1120268 52.4364217,52.6616616 62.9262533,51.2992612 L67.5688447,53.7137738" id="Path-21"></path>
                                    <path d="M49.8296086,65.1442483 C49.2520551,61.3642933 49.9956172,58.9048019 52.0602949,57.7657743 C54.1249726,56.6267467 57.5970295,55.4305722 62.4764656,54.1772507" id="Path-22"></path>
                                </g>
                                <g id="hand" transform="translate(242.000000, 150.000000)" stroke="#575552" stroke-width="2">
                                    <ellipse id="Oval-5-Copy" fill="#575552" transform="translate(131.496807, 11.124353) rotate(-11.000000) translate(-131.496807, -11.124353) " cx="131.496807" cy="11.1243526" rx="12" ry="9"></ellipse>
                                    <path d="M51.7378435,34.1134581 L51.7378435,96.4911755 L76.4134883,76.1616626 L113.641454,57.0721921 L113.641454,53.2139759 L109.336749,43.1030743 L109.336749,37.6476247 L116.29277,21.2251196 C120.584586,16.4460009 123.301264,14.0564416 124.442802,14.0564416 C126.15511,14.0564416 129.905617,14.67232 129.905617,17.2140845 C129.905617,18.9085942 129.905617,22.729066 129.905617,28.6754999 L134.097089,17.2140845 C134.233587,15.474748 135.781822,14.7632178 138.741794,15.0794939 C143.181753,15.5539081 144.229164,15.7070695 145.81443,18.4660946 C147.399695,21.2251196 154.097949,30.93234 154.097949,43.1030743 L156.27884,50.8056978 L156.27884,59.6820806 L149.876097,64.605426 L128.621386,74.0258808 C85.5129621,113.718281 59.0992329,132.918837 49.3801982,131.627548 C39.6611634,130.336259 25.2593657,118.624135 6.17480498,96.4911755 L0.422923602,46.1097395 L0.422923602,21.2251196 L51.7378435,34.1134581 Z" id="Path-19" fill="#F6E8D0" stroke-linecap="round" stroke-linejoin="round"></path>
                                    <ellipse id="Oval-5" fill="#E3855E" transform="translate(130.496807, 27.124353) rotate(-11.000000) translate(-130.496807, -27.124353) " cx="130.496807" cy="27.1243526" rx="9.35387535" ry="7.35024107"></ellipse>
                                </g>
                                <g id="shoes" transform="translate(0.000000, 261.000000)" stroke="#575552" stroke-width="2">
                                    <polygon id="Path-18" fill="#F6E8D0" points="82.2101834 82.3163166 68.5262653 74.0180792 56.0983317 66.730618 52.2081789 36.5125389 78.7554169 17.0957641 89.7816978 17.0957641 86.5316762 65.1865341"></polygon>
                                    <path d="M45.6943782,0.082516165 C17.9704641,43.4981431 3.08505231,69.9382879 1.03814297,79.4029507 C-2.03222104,93.5999448 7.49610417,120.364067 11.7795614,125.565234 C14.6351995,129.032679 22.2162993,129.464144 34.5228606,126.859629 L23.8722013,118.717541 L18.3742889,93.9608785 L47.3444763,38.1116531 L59.1419899,8.58630768 L45.6943782,0.082516165 Z" id="Path-17" fill="#FFFFFF" stroke-linecap="round" stroke-linejoin="round"></path>
                                    <path d="M80.1060857,22.117274 C67.5775331,28.0486713 61.3132568,36.5786292 61.3132568,47.7071476 C61.3132568,58.835666 64.3006708,68.8244649 70.2754988,77.6735442 C68.6108339,84.1665737 65.1718481,88.4446358 59.9585416,90.5077306 C52.1385818,93.6023726 38.7281965,97.783862 37.040872,101.307416 C35.3535476,104.830971 39.5050941,125.227769 34.863131,126.626994 C31.7684889,127.559811 27.0110702,127.559811 20.5908749,126.626994 C8.49716909,117.303684 5.47374264,103.00715 11.5205955,83.7373918 L16.3349328,72.6593177 C26.4610375,56.2926752 33.3630173,45.5671724 37.040872,40.4828093 C40.7187268,35.3984462 46.8732124,24.0533136 55.5043288,6.44741151 L80.1060857,22.117274 Z" id="Path-16" fill="#4E4840" stroke-linecap="round" stroke-linejoin="round"></path>
                                </g>
                                <g id="t-shirt" transform="translate(37.000000, 3.000000)" stroke="#575552" stroke-width="2">
                                    <path d="M218.52686,9.97522935 C239.85392,24.4785183 249.273063,42.7009031 246.784289,64.6423835 C258.31319,85.7369998 264.07764,104.603416 264.07764,121.241632 C264.07764,137.879847 262.605251,157.51688 259.660474,180.15273 C233.130825,185.549268 214.339176,182.193643 203.285526,170.085854 L195.783672,146.958468 L71.3612643,146.958468 L0.535586611,141.3665 L11.1398952,108.696346 L40.3122928,76.532534 L35.7507744,69.4370856 C49.4160825,47.3638378 76.4824236,27.543219 116.949798,9.97522935 L150.188476,3.79474958 L190.358263,0.943245438 L218.52686,9.97522935 Z" id="Path-13" fill="#B7B3AE"></path>
                                    <path d="M193.314281,140.790149 C176.724542,120.869398 167.053247,107.707925 164.300396,101.305732 C161.547546,94.9035385 153.591969,83.3388364 140.433665,66.6116256" id="Path-14" stroke-linecap="round"></path>
                                    <path d="M173.942442,124.107056 C160.477995,115.02611 150.359673,105.427939 143.587475,95.3125418 L131.802916,82.6322211" id="Path-15" stroke-linecap="round"></path>
                                </g>
                                <g id="pants" transform="translate(12.000000, 0.000000)" stroke="#575552" stroke-linecap="round" stroke-width="2">
                                    <path d="M271.599842,69.7052046 L271.599842,66.8377433 C271.8148,61.3278328 253.446662,54.8742503 216.495428,47.4769959 C179.544194,40.0797415 154.165386,37.7756385 140.359005,40.5646868 C122.766935,44.0528548 109.794183,47.8332389 101.440748,51.9058392 C93.0873126,55.9784394 82.146236,63.8569078 68.6175179,75.5412442 L63.6428396,69.7052046 C84.3065425,50.1090389 104.017166,36.0755294 122.774709,27.6046759 C130.32093,24.1968239 150.126384,13.0041642 184.291075,9.23495266 C194.629303,8.09439021 214.421533,9.12312141 243.667766,12.3211463 L230.371714,3.00882519 C198.877667,-1.5139034 173.20107,-0.27262207 153.341922,6.73266916 C123.553199,17.240606 85.3589388,32.154246 50.0240225,80.038618 C26.4674117,111.961533 10.0601754,130.549636 0.802313679,135.802928 C5.52662364,154.792165 6.70770113,167.413324 4.34554615,173.666405 C0.802313679,183.046028 0.0413101412,205.930926 4.34554615,210.841935 C8.64978216,215.752945 -4.1695761,230.488003 35.0474729,262.044283 C61.040648,278.656483 74.0372355,286.962583 74.0372355,286.962583 C71.8144287,304.738463 70.7030253,325.425584 70.7030253,349.023943 C70.7030253,360.514281 81.489629,366.941056 83.5145692,373.337313 C84.9370988,377.830713 84.9370988,382.581412 83.5145692,387.589409 C202.82484,390.614592 268.827083,388.184171 281.521299,380.298145 C294.215514,372.412119 301.654408,361.987385 303.837981,349.023943 C304.504959,336.186321 295.618467,320.347301 277.178505,301.506882 C289.305858,266.235552 293.061495,240.320168 288.445416,223.760731 C283.829338,207.201294 238.79484,193.885424 153.341922,183.813119 C137.353406,180.394353 129.359149,177.012115 129.359149,173.666405 C129.359149,170.320695 129.359149,167.047366 129.359149,163.846416 C144.457459,160.637348 155.773751,159.032815 163.308024,159.032815 C174.609434,159.032815 174.917894,155.008628 186.657642,155.008628 C194.48414,155.008628 204.026786,155.008628 215.28558,155.008628 L222.624864,156.262604 L220.425905,144.618393 C175.434023,145.323251 139.787941,143.340583 113.487659,138.670389 C87.1873766,134.000195 64.9626911,133.044375 46.8136023,135.802928 C38.969516,136.726955 35.0474729,134.834255 35.0474729,130.124827 C35.0474729,125.415399 38.969516,121.148367 46.8136023,117.323733 C61.4113412,111.239763 70.4858856,105.144294 74.0372355,99.037325 C79.3642603,89.8768717 83.1063683,71.88066 94.4605411,66.8377433 C105.814714,61.7948265 133.097198,51.9058392 149.567344,51.9058392 C160.547441,51.9058392 187.482231,54.4560466 230.371714,59.5564614 L271.599842,69.7052046 Z" id="Path-4" fill="#FF8C62" stroke-linejoin="round"></path>
                                    <path d="M36.7073292,98.0148686 C27.5593868,121.658501 27.3538546,136.460916 36.0907326,142.422114" id="Path-5"></path>
                                    <path d="M56.5749964,87.5605951 C34.0371974,111.451426 21.3248771,128.899917 18.4380357,139.906071 C14.1077735,156.4153 5.81105189,176.170121 15.5916168,192.788829" id="Path-6"></path>
                                    <path d="M129.798531,164.628113 C118.740349,161.88067 97.4542877,169.959697 65.9403461,188.865193" id="Path-7"></path>
                                    <path d="M276.994088,301.283703 C256.01831,275.128863 235.11,256.781648 214.269157,246.24206 L202.913611,235.104986 L143.295757,208.075776" id="Path-8"></path>
                                    <path d="M74.3779152,288.389657 L227.840862,335.115215 C250.545333,335.569812 267.577823,338.453524 278.938334,343.76635" id="Path-9"></path>
                                    <path d="M228.236428,335.613396 C246.512991,348.685266 259.363631,355.2212 266.788347,355.2212" id="Path-10"></path>
                                    <path d="M135.84125,308.142278 C137.44889,328.06179 150.944462,345.200206 176.327964,359.557526" id="Path-11"></path>
                                    <path d="M74.3034959,291.141234 C102.136526,339.905586 141.075184,368.60864 191.119468,377.250396" id="Path-12"></path>
                                </g>
                                <g id="cap" transform="translate(300.000000, 9.000000)" stroke="#575552" stroke-linecap="round" stroke-width="2">
                                    <path d="M0.687653464,16.2345455 C19.450055,1.84656076 36.1308984,-2.71173719 50.7301835,2.55965167 L56.0982107,5.35698515 L63.9351162,13.8237652 L68.8492885,12.4990153 L68.8492885,20.6551723 C72.8114585,24.6020029 74.7925436,27.8524243 74.7925436,30.4064364 C74.7925436,34.2374544 81.1936801,41.1373136 79.0808679,52.948469 C77.6723264,60.8225725 70.5943383,70.5341459 57.8469036,82.083189 C58.3822491,92.6186805 57.3299655,99.521991 54.6900527,102.793121 L52.328742,100.477828 C48.8808257,96.0301657 47.7524202,90.7992345 48.9435255,84.7850346 L51.5401045,80.3120622 L42.4342461,78.0099999 C26.399959,60.8344606 17.8141067,50.0500871 16.6766893,45.6568796 L19.0725137,44.393679 C13.4924192,39.8953965 9.63839199,34.972404 7.51043209,29.6247016 C5.38247219,24.2769991 3.10821264,19.8136138 0.687653464,16.2345455 Z M9.29536439,12.0664439 C17.7772921,30.3636777 23.0668966,39.9674917 25.1641776,40.8778858 L27.4581867,35.7727378 C28.9817737,27.3514008 28.2171041,20.6820162 25.1641776,15.7645843 C22.1112512,10.8471524 17.5920687,8.54298098 11.6066303,8.85207013 L9.29536439,12.0664439 Z" id="Combined-Shape" fill="#E3855E" stroke-linejoin="round"></path>
                                    <path d="M68.8803508,20.603977 C70.0403938,35.5763934 65.7386475,47.966995 55.9751119,57.7757818" id="Path-25"></path>
                                    <path d="M19.242206,44.6979746 C24.2225295,51.3905599 28.0023523,54.348382 30.5816744,53.5714408 C33.1609965,52.7944996 33.824426,51.3357919 32.5719631,49.1953177 L25.3419231,40.1099565 L19.242206,44.6979746 Z" id="Path-27" fill="#F5F3F0" stroke-linejoin="round"></path>
                                </g>
                            </g>
                            <g id="box" transform="translate(306.000000, 469.000000)" stroke="#575552" stroke-width="2">
                                <path d="M35.3864677,148.931394 C38.2787531,155.00895 42.0779935,158.047727 46.7841891,158.047727 C51.4903847,158.047727 69.1684971,155.00895 99.8185264,148.931394 L101.49653,144.294859 C67.6147901,151.946269 49.3773432,155.005193 46.7841891,153.471633 C44.1910351,151.938073 40.3917946,150.42466 35.3864677,148.931394 Z" id="Path-47" fill="#F9D496" stroke-linecap="round" stroke-linejoin="round"></path>
                                <path d="M3.28414928,64.3581706 L3.28414928,72.2103667 L10.1231919,79.0371163 C11.3661575,114.644666 12.5633656,132.448441 13.7148161,132.448441 C14.8662667,132.448441 24.2789993,139.422366 41.953014,153.370215 C67.4986889,151.567232 85.8150164,148.75895 96.9019964,144.945367 C113.532466,139.224994 135.787014,140.902997 139.751528,140.063996 C142.394537,139.504661 169.043515,133.390226 219.698461,121.720692 L227.752468,75.2457297 C232.695647,74.3128226 235.167236,72.720529 235.167236,70.468849 C235.167236,68.217169 235.167236,65.2787847 235.167236,61.653696 C237.047392,58.7443369 237.98747,56.6005627 237.98747,55.2223734 C237.98747,53.8441841 201.377353,60.5186362 128.157118,75.2457297 C71.5133995,84.6690481 41.8867681,88.6438062 39.2772232,87.1700041 C36.6676784,85.696202 24.6699871,76.5846495 3.28414928,59.8353466 L3.28414928,64.3581706 Z" id="Path-40" fill="#F9D496"></path>
                                <path d="M39.5425486,90.5055228 C39.3841046,94.1709054 40.4802364,96.0035967 42.8309439,96.0035967 C46.3570051,96.0035967 111.04312,87.7564858 117.139457,90.5055228 C121.203681,92.3382141 123.825861,96.8647943 125.005995,104.085263" id="Path-41" stroke-linecap="round" stroke-linejoin="round"></path>
                                <path d="M235.354705,62.1208325 C211.581964,68.7679667 197.528599,72.0915338 193.19461,72.0915338 C188.860621,72.0915338 183.30074,80.0854417 176.514968,96.0732574" id="Path-42" stroke-linecap="round" stroke-linejoin="round"></path>
                                <path d="M9.63454249,79.3843954 L40.4798949,108.02724 C71.6858439,109.136348 90.9364444,112.115368 98.2316964,116.964299 C105.526948,121.813231 114.089069,129.803383 123.918059,140.934754" id="Path-43"></path>
                                <path d="M227.409427,75.3161104 C212.656971,78.1273279 199.982773,85.2256508 189.386832,96.6110791 C178.790892,107.996507 170.132134,120.734856 163.410559,134.826125" id="Path-44"></path>
                                <path d="M0.641905299,61.2576151 C-0.735535842,56.3397323 0.474948825,53.4084508 4.2733593,52.4637704 L5.75607745,43.2064257 C6.39979411,41.5778467 8.18749412,40.7635572 11.1191775,40.7635572 C14.0508608,40.7635572 46.9380717,35.4794149 109.78081,24.9111303 L189.355159,11.3924777 C193.274919,11.0927195 197.02471,12.5844787 200.60453,15.8677551 C205.97426,20.7926697 223.52458,24.5012733 227.190389,30.7907708 C229.634262,34.9837691 230.946006,39.4630647 231.12562,44.2286574 C234.132443,45.3003131 236.086899,47.236084 236.988986,50.0359702 C237.891074,52.8358564 237.891074,55.2353283 236.988986,57.234386 C208.879222,64.7532537 193.91281,68.5126876 192.089749,68.5126876 C189.355159,68.5126876 182.915581,73.0970592 181.277359,73.0970592 C180.18521,73.0970592 177.876952,73.0970592 174.352583,73.0970592 L172.657101,103.676011 C167.308064,111.742963 161.94396,115.776438 156.564787,115.776438 C151.185614,115.776438 142.875361,113.190321 131.634026,108.018085 L132.75149,81.2375435 C75.7729215,89.2868145 44.7722585,92.4190063 39.7495006,90.6341191 C34.7267426,88.8492318 21.6908775,79.0570638 0.641905299,61.2576151 Z" id="Path-48" fill="#E3855E"></path>
                                <path d="M4.55121827,52.7681496 L38.7278716,82.1211471 C88.2807943,78.1166026 118.704845,73.7279176 130.000023,68.9550921 L129.60222,65.8902052 C136.674146,64.4743342 140.688887,63.7663987 141.646444,63.7663987 C143.08278,63.7663987 142.619597,65.3009922 143.22905,65.3492644 C143.635353,65.381446 144.331808,65.1270171 145.318414,64.5859778 L144.768137,62.7312923 C150.929654,60.7350473 154.439758,60.2359861 155.298449,61.2341086 C156.15714,62.232231 156.930964,63.187954 157.619922,64.1012776 L160.412219,63.47235 C160.187468,61.2440536 160.451799,60.1299055 161.205213,60.1299055 C162.335333,60.1299055 168.785632,58.1030669 169.740961,58.1030669 C170.377847,58.1030669 171.187558,58.3419007 172.170094,58.8195684 L173.907767,60.1299055 L230.758556,44.8235529" id="Path-49" stroke-linecap="round" stroke-linejoin="round"></path>
                                <path d="M130,69 C132.20355,76.0133722 133.113919,80.0979988 132.731107,81.2538798" id="Path-50"></path>
                                <path d="M173.4301,59.9207671 C174.178214,63.0404305 174.619315,65.210581 174.753402,66.4312185 C175.124258,69.8072177 174.355209,72.0311734 174.355209,72.9515802" id="Path-50-Copy"></path>
                                <path d="M143,65.6826587 C143.457955,86.4492145 144.09104,97.0963573 144.899257,97.6240873 C145.707473,98.1518173 147.277331,98.1518173 149.608831,97.6240873 L145.355566,64" id="Path-51" stroke-linecap="round" stroke-linejoin="round"></path>
                                <path d="M158,64.6826587 C158.090751,77.5038258 158.090751,85.6875998 158,89.2339807 C157.880351,93.909638 156.634805,96.3772211 157.01288,96.6240873 C157.821096,97.1518173 159.229675,97.1518173 161.238615,96.6240873 L161.98554,90.0128499 L160.355566,63" id="Path-51-Copy" stroke-linecap="round" stroke-linejoin="round"></path>
                                <path d="M144.109604,104.918127 C148.546731,107.89239 151.857888,109.202864 154.043074,108.849548 C157.320854,108.319574 161.457323,107.926233 163.062803,104.496661" id="Path-52" stroke-linecap="round" stroke-linejoin="round"></path>
                                <path d="M134,69.662811 C134.485433,71.7899021 134.793471,73.4061926 134.924112,74.5116824 C135.054754,75.6171723 135.13505,76.5030258 135.165003,77.1692429 L139.696259,76.7573529 C139.551,74.7184818 139.459262,73.1645753 139.421044,72.0956336 C139.382827,71.0266919 139.382827,70.0146725 139.421044,69.0595754 C138.667488,68.9801415 137.93379,68.9801415 137.219949,69.0595754 C136.506108,69.1390092 135.432792,69.3400877 134,69.662811 Z" id="Path-53" stroke-linecap="round" stroke-linejoin="round"></path>
                                <path d="M150,67.6757394 C150.018823,69.7942116 150.093555,71.4061926 150.224197,72.5116824 C150.354838,73.6171723 150.435135,74.5030258 150.465087,75.1692429 L154.996344,74.7573529 C154.851085,72.7184818 154.759346,71.1645753 154.721129,70.0956336 C154.682912,69.0266919 154.682912,68.0146725 154.721129,67.0595754 C153.967573,66.9801415 153.233874,66.9801415 152.520033,67.0595754 C151.806193,67.1390092 150.966181,67.3443972 150,67.6757394 Z" id="Path-53-Copy" stroke-linecap="round" stroke-linejoin="round"></path>
                                <path d="M165,65.6757394 C165.018823,67.7942116 165.093555,69.4061926 165.224197,70.5116824 C165.354838,71.6171723 165.435135,72.5030258 165.465087,73.1692429 L169.996344,72.7573529 C170.315903,70.6582684 170.456574,69.0742553 170.418357,68.0053136 C170.38014,66.9363719 170.14773,65.9544591 169.721129,65.0595754 C168.967573,64.9801415 168.233874,64.9801415 167.520033,65.0595754 C166.806193,65.1390092 165.966181,65.3443972 165,65.6757394 Z" id="Path-53-Copy-2" stroke-linecap="round" stroke-linejoin="round"></path>
                                <path d="M32,45 L47.0620213,62.1950662" id="Path-54" stroke-linecap="round" stroke-linejoin="round"></path>
                                <path d="M43,42 L58.0620213,59.1950662" id="Path-54-Copy" stroke-linecap="round" stroke-linejoin="round"></path>
                                <path d="M58,40 L73.0620213,57.1950662" id="Path-54-Copy-2" stroke-linecap="round" stroke-linejoin="round"></path>
                                <path d="M180,22 L198.326887,35.4219131" id="Path-54-Copy-3" stroke-linecap="round" stroke-linejoin="round"></path>
                                <path d="M171,24 L189.326887,37.4219131" id="Path-54-Copy-5" stroke-linecap="round" stroke-linejoin="round"></path>
                                <path d="M194,20 L212.326887,33.4219131" id="Path-54-Copy-4" stroke-linecap="round" stroke-linejoin="round"></path>
                                <path d="M71.6349217,41.1242792 C81.7802659,51.1740316 87.5717829,56.1989078 89.0094725,56.1989078 C91.1660069,56.1989078 165.558307,40.7939596 169.431536,39.8707359 C172.013689,39.2552534 175.80892,38.8440032 180.817229,38.6369853 L171.225643,30.1885429" id="Path-55" stroke-linecap="round" stroke-linejoin="round"></path>
                                <polyline id="Path-56" stroke-linecap="round" stroke-linejoin="round" points="93.4047913 54.9867094 92.6020838 46.4520584 162.182097 34.8979074 164.58978 40.1535528"></polyline>
                                <path d="M92.8030905,46.6249155 L80.7774312,34.7395651 C94.4391479,34.4032342 102.713267,33.9433084 105.599789,33.3597877 C108.486311,32.7762669 123.632047,30.3303179 151.036997,26.0219407 L162.266546,34.7395651" id="Path-57" stroke-linecap="round" stroke-linejoin="round"></path>
                                <path d="M106.515535,33.7112197 L108.848006,37.8391159 C127.407485,35.8176123 136.687224,34.4416469 136.687224,33.7112197 C136.687224,32.9807924 135.976297,31.452056 134.554441,29.1250103 L106.515535,33.7112197 Z" id="Path-58" fill="#575552"></path>
                                <path d="M74.6302305,43.8090612 C72.7025594,24.7971336 72.7025594,14.6201208 74.6302305,13.2780231 C77.5217372,11.2648764 156.368295,-1.67564961 164.675989,1.20662044 L166.956998,2.72934574 L166.956998,39.6604925 L164.675989,40.4970677 L162.349676,34.9111026 L155.698859,29.3559262 C157.043596,20.6122047 157.043596,15.8839271 155.698859,15.1710935 C154.354122,14.4582598 142.119832,14.0927529 118.995989,14.0745729 L84.3036267,26.4235144 L85.1582354,52.9396951 L74.6302305,43.8090612 Z" id="Path-59" fill="#575552" stroke-linecap="round" stroke-linejoin="round"></path>
                            </g>
                            <path d="M350.695024,583.505645 L353.5296,628.360996" id="Path-45" stroke="#575552" stroke-width="2"></path>
                            <path d="M525.724552,584 L482.990108,600.482656" id="Path-46" stroke="#575552" stroke-width="2" stroke-linecap="round" stroke-linejoin="round"></path>
                        </g>
                    </g>
                </g>
            </g>
        </g>
    </g>
</svg>